<svg xmlns="http://www.w3.org/2000/svg" version="1.1" xmlns:xlink="http://www.w3.org/1999/xlink" xmlns:svgjs="http://svgjs.dev/svgjs" viewBox="0 0 800 800"><defs><linearGradient x1="50%" y1="0%" x2="50%" y2="100%" id="ffflurry-grad" gradientTransform="rotate(270)"><stop stop-color="hsl(238, 82%, 13%)" stop-opacity="1" offset="0%"></stop><stop stop-color="hsl(265, 55%, 30%)" stop-opacity="1" offset="45%"></stop><stop stop-color="hsl(265, 55%, 60%)" stop-opacity="1" offset="100%"></stop></linearGradient></defs><rect width="100%" height="100%" fill="hsl(238, 82%, 13%)"></rect><g fill="url(#ffflurry-grad)"><rect width="68" height="3" x="607" y="34.5" rx="1.5" transform="rotate(45, 641, 36)" opacity="0.51"></rect><rect width="592" height="3" x="290" y="295.5" rx="1.5" transform="rotate(45, 586, 297)" opacity="0.63"></rect><rect width="93" height="3" x="376.5" y="486.5" rx="1.5" transform="rotate(45, 423, 488)" opacity="0.20"></rect><rect width="35" height="3" x="203.5" y="773.5" rx="1.5" transform="rotate(45, 221, 775)" opacity="0.46"></rect><rect width="366" height="3" x="-72" y="28.5" rx="1.5" transform="rotate(45, 111, 30)" opacity="0.20"></rect><rect width="385" height="3" x="125.5" y="428.5" rx="1.5" transform="rotate(45, 318, 430)" opacity="0.75"></rect><rect width="134" height="3" x="287" y="499.5" rx="1.5" transform="rotate(45, 354, 501)" opacity="0.21"></rect><rect width="103" height="3" x="573.5" y="446.5" rx="1.5" transform="rotate(45, 625, 448)" opacity="0.96"></rect><rect width="488" height="3" x="-208" y="179.5" rx="1.5" transform="rotate(45, 36, 181)" opacity="0.34"></rect><rect width="176" height="3" x="549" y="527.5" rx="1.5" transform="rotate(45, 637, 529)" opacity="0.59"></rect><rect width="398" height="3" x="508" y="518.5" rx="1.5" transform="rotate(45, 707, 520)" opacity="0.32"></rect><rect width="206" height="3" x="545" y="756.5" rx="1.5" transform="rotate(45, 648, 758)" opacity="0.10"></rect><rect width="579" height="3" x="254.5" y="553.5" rx="1.5" transform="rotate(45, 544, 555)" opacity="0.74"></rect><rect width="520" height="3" x="-214" y="310.5" rx="1.5" transform="rotate(45, 46, 312)" opacity="0.12"></rect><rect width="423" height="3" x="106.5" y="170.5" rx="1.5" transform="rotate(45, 318, 172)" opacity="0.14"></rect><rect width="270" height="3" x="521" y="197.5" rx="1.5" transform="rotate(45, 656, 199)" opacity="0.22"></rect><rect width="412" height="3" x="562" y="534.5" rx="1.5" transform="rotate(45, 768, 536)" opacity="0.35"></rect><rect width="485" height="3" x="103.5" y="325.5" rx="1.5" transform="rotate(45, 346, 327)" opacity="0.42"></rect><rect width="316" height="3" x="359" y="758.5" rx="1.5" transform="rotate(45, 517, 760)" opacity="0.66"></rect><rect width="182" height="3" x="406" y="443.5" rx="1.5" transform="rotate(45, 497, 445)" opacity="0.27"></rect><rect width="166" height="3" x="58" y="285.5" rx="1.5" transform="rotate(45, 141, 287)" opacity="0.96"></rect><rect width="427" height="3" x="-68.5" y="421.5" rx="1.5" transform="rotate(45, 145, 423)" opacity="0.68"></rect><rect width="287" height="3" x="329.5" y="37.5" rx="1.5" transform="rotate(45, 473, 39)" opacity="0.76"></rect><rect width="120" height="3" x="38" y="92.5" rx="1.5" transform="rotate(45, 98, 94)" opacity="0.53"></rect><rect width="74" height="3" x="132" y="161.5" rx="1.5" transform="rotate(45, 169, 163)" opacity="0.28"></rect><rect width="387" height="3" x="-164.5" y="667.5" rx="1.5" transform="rotate(45, 29, 669)" opacity="0.43"></rect><rect width="101" height="3" x="163.5" y="700.5" rx="1.5" transform="rotate(45, 214, 702)" opacity="0.90"></rect><rect width="219" height="3" x="374.5" y="515.5" rx="1.5" transform="rotate(45, 484, 517)" opacity="0.76"></rect><rect width="489" height="3" x="-213.5" y="51.5" rx="1.5" transform="rotate(45, 31, 53)" opacity="0.73"></rect><rect width="220" height="3" x="140" y="267.5" rx="1.5" transform="rotate(45, 250, 269)" opacity="0.87"></rect><rect width="178" height="3" x="309" y="128.5" rx="1.5" transform="rotate(45, 398, 130)" opacity="0.79"></rect><rect width="467" height="3" x="176.5" y="254.5" rx="1.5" transform="rotate(45, 410, 256)" opacity="0.92"></rect><rect width="392" height="3" x="555" y="415.5" rx="1.5" transform="rotate(45, 751, 417)" opacity="0.45"></rect><rect width="400" height="3" x="154" y="598.5" rx="1.5" transform="rotate(45, 354, 600)" opacity="0.44"></rect><rect width="69" height="3" x="36.5" y="764.5" rx="1.5" transform="rotate(45, 71, 766)" opacity="0.88"></rect><rect width="215" height="3" x="348.5" y="659.5" rx="1.5" transform="rotate(45, 456, 661)" opacity="0.56"></rect><rect width="129" height="3" x="703.5" y="67.5" rx="1.5" transform="rotate(45, 768, 69)" opacity="0.24"></rect><rect width="489" height="3" x="416.5" y="361.5" rx="1.5" transform="rotate(45, 661, 363)" opacity="0.37"></rect><rect width="575" height="3" x="36.5" y="49.5" rx="1.5" transform="rotate(45, 324, 51)" opacity="0.50"></rect><rect width="443" height="3" x="250.5" y="316.5" rx="1.5" transform="rotate(45, 472, 318)" opacity="0.78"></rect><rect width="287" height="3" x="600.5" y="23.5" rx="1.5" transform="rotate(45, 744, 25)" opacity="0.20"></rect><rect width="31" height="3" x="356.5" y="209.5" rx="1.5" transform="rotate(45, 372, 211)" opacity="0.65"></rect><rect width="373" height="3" x="57.5" y="144.5" rx="1.5" transform="rotate(45, 244, 146)" opacity="0.20"></rect><rect width="490" height="3" x="-199" y="458.5" rx="1.5" transform="rotate(45, 46, 460)" opacity="0.38"></rect><rect width="548" height="3" x="334" y="600.5" rx="1.5" transform="rotate(45, 608, 602)" opacity="0.40"></rect><rect width="151" height="3" x="168.5" y="634.5" rx="1.5" transform="rotate(45, 244, 636)" opacity="0.78"></rect><rect width="413" height="3" x="337.5" y="386.5" rx="1.5" transform="rotate(45, 544, 388)" opacity="0.38"></rect><rect width="439" height="3" x="-15.5" y="46.5" rx="1.5" transform="rotate(45, 204, 48)" opacity="0.94"></rect><rect width="518" height="3" x="5" y="538.5" rx="1.5" transform="rotate(45, 264, 540)" opacity="0.42"></rect><rect width="253" height="3" x="110.5" y="390.5" rx="1.5" transform="rotate(45, 237, 392)" opacity="0.34"></rect><rect width="76" height="3" x="273" y="730.5" rx="1.5" transform="rotate(45, 311, 732)" opacity="0.74"></rect><rect width="368" height="3" x="345" y="129.5" rx="1.5" transform="rotate(45, 529, 131)" opacity="0.15"></rect><rect width="620" height="3" x="-138" y="518.5" rx="1.5" transform="rotate(45, 172, 520)" opacity="0.36"></rect><rect width="78" height="3" x="59" y="577.5" rx="1.5" transform="rotate(45, 98, 579)" opacity="0.28"></rect><rect width="360" height="3" x="282" y="135.5" rx="1.5" transform="rotate(45, 462, 137)" opacity="0.89"></rect><rect width="197" height="3" x="313.5" y="399.5" rx="1.5" transform="rotate(45, 412, 401)" opacity="0.28"></rect><rect width="489" height="3" x="264.5" y="223.5" rx="1.5" transform="rotate(45, 509, 225)" opacity="0.19"></rect><rect width="182" height="3" x="17" y="662.5" rx="1.5" transform="rotate(45, 108, 664)" opacity="0.76"></rect><rect width="340" height="3" x="600" y="286.5" rx="1.5" transform="rotate(45, 770, 288)" opacity="0.92"></rect><rect width="752" height="3" x="27" y="738.5" rx="1.5" transform="rotate(45, 403, 740)" opacity="0.60"></rect><rect width="92" height="3" x="713" y="621.5" rx="1.5" transform="rotate(45, 759, 623)" opacity="0.71"></rect><rect width="110" height="3" x="680" y="168.5" rx="1.5" transform="rotate(45, 735, 170)" opacity="0.63"></rect><rect width="365" height="3" x="266.5" y="584.5" rx="1.5" transform="rotate(45, 449, 586)" opacity="0.57"></rect><rect width="155" height="3" x="704.5" y="176.5" rx="1.5" transform="rotate(45, 782, 178)" opacity="0.79"></rect><rect width="328" height="3" x="609" y="698.5" rx="1.5" transform="rotate(45, 773, 700)" opacity="0.67"></rect><rect width="501" height="3" x="424.5" y="119.5" rx="1.5" transform="rotate(45, 675, 121)" opacity="0.65"></rect><rect width="244" height="3" x="587" y="702.5" rx="1.5" transform="rotate(45, 709, 704)" opacity="0.83"></rect><rect width="206" height="3" x="611" y="221.5" rx="1.5" transform="rotate(45, 714, 223)" opacity="0.88"></rect><rect width="308" height="3" x="542" y="293.5" rx="1.5" transform="rotate(45, 696, 295)" opacity="0.78"></rect><rect width="243" height="3" x="449.5" y="684.5" rx="1.5" transform="rotate(45, 571, 686)" opacity="0.74"></rect><rect width="100" height="3" x="103" y="729.5" rx="1.5" transform="rotate(45, 153, 731)" opacity="0.34"></rect><rect width="186" height="3" x="495" y="93.5" rx="1.5" transform="rotate(45, 588, 95)" opacity="0.93"></rect><rect width="178" height="3" x="587" y="635.5" rx="1.5" transform="rotate(45, 676, 637)" opacity="0.15"></rect><rect width="235" height="3" x="628.5" y="107.5" rx="1.5" transform="rotate(45, 746, 109)" opacity="0.16"></rect><rect width="300" height="3" x="446" y="202.5" rx="1.5" transform="rotate(45, 596, 204)" opacity="0.76"></rect><rect width="435" height="3" x="537.5" y="767.5" rx="1.5" transform="rotate(45, 755, 769)" opacity="0.28"></rect><rect width="286" height="3" x="-41" y="169.5" rx="1.5" transform="rotate(45, 102, 171)" opacity="0.65"></rect></g></svg>