<svg xmlns="http://www.w3.org/2000/svg" version="1.1" xmlns:xlink="http://www.w3.org/1999/xlink" xmlns:svgjs="http://svgjs.dev/svgjs" viewBox="0 0 800 800" opacity="1" width="800" height="800"><g stroke-width="0.5" stroke="hsla(0, 0%, 0%, 1)" fill="none"><circle r="2.5" cx="0" cy="0" fill="hsla(0, 0%, 0%, 1)" stroke="none"></circle><circle r="2.5" cx="61.53846153846154" cy="0" fill="hsla(89, 73%, 48%, 1)" stroke="none"></circle><circle r="2.5" cx="123.07692307692308" cy="0" fill="hsla(0, 0%, 0%, 1)" stroke="none"></circle><circle r="2.5" cx="184.6153846153846" cy="0" fill="hsla(89, 73%, 48%, 1)" stroke="none"></circle><circle r="2.5" cx="246.15384615384616" cy="0" fill="hsla(0, 0%, 0%, 1)" stroke="none"></circle><circle r="2.5" cx="307.6923076923077" cy="0" fill="hsla(89, 73%, 48%, 1)" stroke="none"></circle><circle r="2.5" cx="369.2307692307692" cy="0" fill="hsla(0, 0%, 0%, 1)" stroke="none"></circle><circle r="2.5" cx="430.7692307692308" cy="0" fill="hsla(89, 73%, 48%, 1)" stroke="none"></circle><circle r="2.5" cx="492.3076923076923" cy="0" fill="hsla(0, 0%, 0%, 1)" stroke="none"></circle><circle r="2.5" cx="553.8461538461538" cy="0" fill="hsla(89, 73%, 48%, 1)" stroke="none"></circle><circle r="2.5" cx="615.3846153846154" cy="0" fill="hsla(0, 0%, 0%, 1)" stroke="none"></circle><circle r="2.5" cx="676.9230769230769" cy="0" fill="hsla(89, 73%, 48%, 1)" stroke="none"></circle><circle r="2.5" cx="738.4615384615385" cy="0" fill="hsla(0, 0%, 0%, 1)" stroke="none"></circle><circle r="2.5" cx="800" cy="0" fill="hsla(89, 73%, 48%, 1)" stroke="none"></circle><circle r="2.5" cx="0" cy="44.44444444444444" fill="hsla(0, 0%, 0%, 1)" stroke="none"></circle><circle r="2.5" cx="61.53846153846154" cy="44.44444444444444" fill="hsla(89, 73%, 48%, 1)" stroke="none"></circle><circle r="2.5" cx="123.07692307692308" cy="44.44444444444444" fill="hsla(0, 0%, 0%, 1)" stroke="none"></circle><circle r="2.5" cx="184.6153846153846" cy="44.44444444444444" fill="hsla(89, 73%, 48%, 1)" stroke="none"></circle><circle r="2.5" cx="246.15384615384616" cy="44.44444444444444" fill="hsla(0, 0%, 0%, 1)" stroke="none"></circle><circle r="2.5" cx="307.6923076923077" cy="44.44444444444444" fill="hsla(89, 73%, 48%, 1)" stroke="none"></circle><circle r="2.5" cx="369.2307692307692" cy="44.44444444444444" fill="hsla(0, 0%, 0%, 1)" stroke="none"></circle><circle r="2.5" cx="430.7692307692308" cy="44.44444444444444" fill="hsla(89, 73%, 48%, 1)" stroke="none"></circle><circle r="2.5" cx="492.3076923076923" cy="44.44444444444444" fill="hsla(0, 0%, 0%, 1)" stroke="none"></circle><circle r="2.5" cx="553.8461538461538" cy="44.44444444444444" fill="hsla(89, 73%, 48%, 1)" stroke="none"></circle><circle r="2.5" cx="615.3846153846154" cy="44.44444444444444" fill="hsla(0, 0%, 0%, 1)" stroke="none"></circle><circle r="2.5" cx="676.9230769230769" cy="44.44444444444444" fill="hsla(89, 73%, 48%, 1)" stroke="none"></circle><circle r="2.5" cx="738.4615384615385" cy="44.44444444444444" fill="hsla(0, 0%, 0%, 1)" stroke="none"></circle><circle r="2.5" cx="800" cy="44.44444444444444" fill="hsla(89, 73%, 48%, 1)" stroke="none"></circle><circle r="2.5" cx="0" cy="88.88888888888889" fill="hsla(0, 0%, 0%, 1)" stroke="none"></circle><circle r="2.5" cx="61.53846153846154" cy="88.88888888888889" fill="hsla(89, 73%, 48%, 1)" stroke="none"></circle><circle r="2.5" cx="123.07692307692308" cy="88.88888888888889" fill="hsla(0, 0%, 0%, 1)" stroke="none"></circle><circle r="2.5" cx="184.6153846153846" cy="88.88888888888889" fill="hsla(89, 73%, 48%, 1)" stroke="none"></circle><circle r="2.5" cx="246.15384615384616" cy="88.88888888888889" fill="hsla(0, 0%, 0%, 1)" stroke="none"></circle><circle r="2.5" cx="307.6923076923077" cy="88.88888888888889" fill="hsla(89, 73%, 48%, 1)" stroke="none"></circle><circle r="2.5" cx="369.2307692307692" cy="88.88888888888889" fill="hsla(0, 0%, 0%, 1)" stroke="none"></circle><circle r="2.5" cx="430.7692307692308" cy="88.88888888888889" fill="hsla(89, 73%, 48%, 1)" stroke="none"></circle><circle r="2.5" cx="492.3076923076923" cy="88.88888888888889" fill="hsla(0, 0%, 0%, 1)" stroke="none"></circle><circle r="2.5" cx="553.8461538461538" cy="88.88888888888889" fill="hsla(89, 73%, 48%, 1)" stroke="none"></circle><circle r="2.5" cx="615.3846153846154" cy="88.88888888888889" fill="hsla(0, 0%, 0%, 1)" stroke="none"></circle><circle r="2.5" cx="676.9230769230769" cy="88.88888888888889" fill="hsla(89, 73%, 48%, 1)" stroke="none"></circle><circle r="2.5" cx="738.4615384615385" cy="88.88888888888889" fill="hsla(0, 0%, 0%, 1)" stroke="none"></circle><circle r="2.5" cx="800" cy="88.88888888888889" fill="hsla(89, 73%, 48%, 1)" stroke="none"></circle><circle r="2.5" cx="0" cy="133.33333333333331" fill="hsla(0, 0%, 0%, 1)" stroke="none"></circle><circle r="2.5" cx="61.53846153846154" cy="133.33333333333331" fill="hsla(89, 73%, 48%, 1)" stroke="none"></circle><circle r="2.5" cx="123.07692307692308" cy="133.33333333333331" fill="hsla(0, 0%, 0%, 1)" stroke="none"></circle><circle r="2.5" cx="184.6153846153846" cy="133.33333333333331" fill="hsla(89, 73%, 48%, 1)" stroke="none"></circle><circle r="2.5" cx="246.15384615384616" cy="133.33333333333331" fill="hsla(0, 0%, 0%, 1)" stroke="none"></circle><circle r="2.5" cx="307.6923076923077" cy="133.33333333333331" fill="hsla(89, 73%, 48%, 1)" stroke="none"></circle><circle r="2.5" cx="369.2307692307692" cy="133.33333333333331" fill="hsla(0, 0%, 0%, 1)" stroke="none"></circle><circle r="2.5" cx="430.7692307692308" cy="133.33333333333331" fill="hsla(89, 73%, 48%, 1)" stroke="none"></circle><circle r="2.5" cx="492.3076923076923" cy="133.33333333333331" fill="hsla(0, 0%, 0%, 1)" stroke="none"></circle><circle r="2.5" cx="553.8461538461538" cy="133.33333333333331" fill="hsla(89, 73%, 48%, 1)" stroke="none"></circle><circle r="2.5" cx="615.3846153846154" cy="133.33333333333331" fill="hsla(0, 0%, 0%, 1)" stroke="none"></circle><circle r="2.5" cx="676.9230769230769" cy="133.33333333333331" fill="hsla(89, 73%, 48%, 1)" stroke="none"></circle><circle r="2.5" cx="738.4615384615385" cy="133.33333333333331" fill="hsla(0, 0%, 0%, 1)" stroke="none"></circle><circle r="2.5" cx="800" cy="133.33333333333331" fill="hsla(89, 73%, 48%, 1)" stroke="none"></circle><circle r="2.5" cx="0" cy="177.77777777777777" fill="hsla(0, 0%, 0%, 1)" stroke="none"></circle><circle r="2.5" cx="61.53846153846154" cy="177.77777777777777" fill="hsla(89, 73%, 48%, 1)" stroke="none"></circle><circle r="2.5" cx="123.07692307692308" cy="177.77777777777777" fill="hsla(0, 0%, 0%, 1)" stroke="none"></circle><circle r="2.5" cx="184.6153846153846" cy="177.77777777777777" fill="hsla(89, 73%, 48%, 1)" stroke="none"></circle><circle r="2.5" cx="246.15384615384616" cy="177.77777777777777" fill="hsla(0, 0%, 0%, 1)" stroke="none"></circle><circle r="2.5" cx="307.6923076923077" cy="177.77777777777777" fill="hsla(89, 73%, 48%, 1)" stroke="none"></circle><circle r="2.5" cx="369.2307692307692" cy="177.77777777777777" fill="hsla(0, 0%, 0%, 1)" stroke="none"></circle><circle r="2.5" cx="430.7692307692308" cy="177.77777777777777" fill="hsla(89, 73%, 48%, 1)" stroke="none"></circle><circle r="2.5" cx="492.3076923076923" cy="177.77777777777777" fill="hsla(0, 0%, 0%, 1)" stroke="none"></circle><circle r="2.5" cx="553.8461538461538" cy="177.77777777777777" fill="hsla(89, 73%, 48%, 1)" stroke="none"></circle><circle r="2.5" cx="615.3846153846154" cy="177.77777777777777" fill="hsla(0, 0%, 0%, 1)" stroke="none"></circle><circle r="2.5" cx="676.9230769230769" cy="177.77777777777777" fill="hsla(89, 73%, 48%, 1)" stroke="none"></circle><circle r="2.5" cx="738.4615384615385" cy="177.77777777777777" fill="hsla(0, 0%, 0%, 1)" stroke="none"></circle><circle r="2.5" cx="800" cy="177.77777777777777" fill="hsla(89, 73%, 48%, 1)" stroke="none"></circle><circle r="2.5" cx="0" cy="222.22222222222223" fill="hsla(0, 0%, 0%, 1)" stroke="none"></circle><circle r="2.5" cx="61.53846153846154" cy="222.22222222222223" fill="hsla(89, 73%, 48%, 1)" stroke="none"></circle><circle r="2.5" cx="123.07692307692308" cy="222.22222222222223" fill="hsla(0, 0%, 0%, 1)" stroke="none"></circle><circle r="2.5" cx="184.6153846153846" cy="222.22222222222223" fill="hsla(89, 73%, 48%, 1)" stroke="none"></circle><circle r="2.5" cx="246.15384615384616" cy="222.22222222222223" fill="hsla(0, 0%, 0%, 1)" stroke="none"></circle><circle r="2.5" cx="307.6923076923077" cy="222.22222222222223" fill="hsla(89, 73%, 48%, 1)" stroke="none"></circle><circle r="2.5" cx="369.2307692307692" cy="222.22222222222223" fill="hsla(0, 0%, 0%, 1)" stroke="none"></circle><circle r="2.5" cx="430.7692307692308" cy="222.22222222222223" fill="hsla(89, 73%, 48%, 1)" stroke="none"></circle><circle r="2.5" cx="492.3076923076923" cy="222.22222222222223" fill="hsla(0, 0%, 0%, 1)" stroke="none"></circle><circle r="2.5" cx="553.8461538461538" cy="222.22222222222223" fill="hsla(89, 73%, 48%, 1)" stroke="none"></circle><circle r="2.5" cx="615.3846153846154" cy="222.22222222222223" fill="hsla(0, 0%, 0%, 1)" stroke="none"></circle><circle r="2.5" cx="676.9230769230769" cy="222.22222222222223" fill="hsla(89, 73%, 48%, 1)" stroke="none"></circle><circle r="2.5" cx="738.4615384615385" cy="222.22222222222223" fill="hsla(0, 0%, 0%, 1)" stroke="none"></circle><circle r="2.5" cx="800" cy="222.22222222222223" fill="hsla(89, 73%, 48%, 1)" stroke="none"></circle><circle r="2.5" cx="0" cy="266.6666666666667" fill="hsla(0, 0%, 0%, 1)" stroke="none"></circle><circle r="2.5" cx="61.53846153846154" cy="266.6666666666667" fill="hsla(89, 73%, 48%, 1)" stroke="none"></circle><circle r="2.5" cx="123.07692307692308" cy="266.6666666666667" fill="hsla(0, 0%, 0%, 1)" stroke="none"></circle><circle r="2.5" cx="184.6153846153846" cy="266.6666666666667" fill="hsla(89, 73%, 48%, 1)" stroke="none"></circle><circle r="2.5" cx="246.15384615384616" cy="266.6666666666667" fill="hsla(0, 0%, 0%, 1)" stroke="none"></circle><circle r="2.5" cx="307.6923076923077" cy="266.6666666666667" fill="hsla(89, 73%, 48%, 1)" stroke="none"></circle><circle r="2.5" cx="369.2307692307692" cy="266.6666666666667" fill="hsla(0, 0%, 0%, 1)" stroke="none"></circle><circle r="2.5" cx="430.7692307692308" cy="266.6666666666667" fill="hsla(89, 73%, 48%, 1)" stroke="none"></circle><circle r="2.5" cx="492.3076923076923" cy="266.6666666666667" fill="hsla(0, 0%, 0%, 1)" stroke="none"></circle><circle r="2.5" cx="553.8461538461538" cy="266.6666666666667" fill="hsla(89, 73%, 48%, 1)" stroke="none"></circle><circle r="2.5" cx="615.3846153846154" cy="266.6666666666667" fill="hsla(0, 0%, 0%, 1)" stroke="none"></circle><circle r="2.5" cx="676.9230769230769" cy="266.6666666666667" fill="hsla(89, 73%, 48%, 1)" stroke="none"></circle><circle r="2.5" cx="738.4615384615385" cy="266.6666666666667" fill="hsla(0, 0%, 0%, 1)" stroke="none"></circle><circle r="2.5" cx="800" cy="266.6666666666667" fill="hsla(89, 73%, 48%, 1)" stroke="none"></circle><circle r="2.5" cx="0" cy="311.11111111111114" fill="hsla(0, 0%, 0%, 1)" stroke="none"></circle><circle r="2.5" cx="61.53846153846154" cy="311.11111111111114" fill="hsla(89, 73%, 48%, 1)" stroke="none"></circle><circle r="2.5" cx="123.07692307692308" cy="311.11111111111114" fill="hsla(0, 0%, 0%, 1)" stroke="none"></circle><circle r="2.5" cx="184.6153846153846" cy="311.11111111111114" fill="hsla(89, 73%, 48%, 1)" stroke="none"></circle><circle r="2.5" cx="246.15384615384616" cy="311.11111111111114" fill="hsla(0, 0%, 0%, 1)" stroke="none"></circle><circle r="2.5" cx="307.6923076923077" cy="311.11111111111114" fill="hsla(89, 73%, 48%, 1)" stroke="none"></circle><circle r="2.5" cx="369.2307692307692" cy="311.11111111111114" fill="hsla(0, 0%, 0%, 1)" stroke="none"></circle><circle r="2.5" cx="430.7692307692308" cy="311.11111111111114" fill="hsla(89, 73%, 48%, 1)" stroke="none"></circle><circle r="2.5" cx="492.3076923076923" cy="311.11111111111114" fill="hsla(0, 0%, 0%, 1)" stroke="none"></circle><circle r="2.5" cx="553.8461538461538" cy="311.11111111111114" fill="hsla(89, 73%, 48%, 1)" stroke="none"></circle><circle r="2.5" cx="615.3846153846154" cy="311.11111111111114" fill="hsla(0, 0%, 0%, 1)" stroke="none"></circle><circle r="2.5" cx="676.9230769230769" cy="311.11111111111114" fill="hsla(89, 73%, 48%, 1)" stroke="none"></circle><circle r="2.5" cx="738.4615384615385" cy="311.11111111111114" fill="hsla(0, 0%, 0%, 1)" stroke="none"></circle><circle r="2.5" cx="800" cy="311.11111111111114" fill="hsla(89, 73%, 48%, 1)" stroke="none"></circle><circle r="2.5" cx="0" cy="355.5555555555556" fill="hsla(0, 0%, 0%, 1)" stroke="none"></circle><circle r="2.5" cx="61.53846153846154" cy="355.5555555555556" fill="hsla(89, 73%, 48%, 1)" stroke="none"></circle><circle r="2.5" cx="123.07692307692308" cy="355.5555555555556" fill="hsla(0, 0%, 0%, 1)" stroke="none"></circle><circle r="2.5" cx="184.6153846153846" cy="355.5555555555556" fill="hsla(89, 73%, 48%, 1)" stroke="none"></circle><circle r="2.5" cx="246.15384615384616" cy="355.5555555555556" fill="hsla(0, 0%, 0%, 1)" stroke="none"></circle><circle r="2.5" cx="307.6923076923077" cy="355.5555555555556" fill="hsla(89, 73%, 48%, 1)" stroke="none"></circle><circle r="2.5" cx="369.2307692307692" cy="355.5555555555556" fill="hsla(0, 0%, 0%, 1)" stroke="none"></circle><circle r="2.5" cx="430.7692307692308" cy="355.5555555555556" fill="hsla(89, 73%, 48%, 1)" stroke="none"></circle><circle r="2.5" cx="492.3076923076923" cy="355.5555555555556" fill="hsla(0, 0%, 0%, 1)" stroke="none"></circle><circle r="2.5" cx="553.8461538461538" cy="355.5555555555556" fill="hsla(89, 73%, 48%, 1)" stroke="none"></circle><circle r="2.5" cx="615.3846153846154" cy="355.5555555555556" fill="hsla(0, 0%, 0%, 1)" stroke="none"></circle><circle r="2.5" cx="676.9230769230769" cy="355.5555555555556" fill="hsla(89, 73%, 48%, 1)" stroke="none"></circle><circle r="2.5" cx="738.4615384615385" cy="355.5555555555556" fill="hsla(0, 0%, 0%, 1)" stroke="none"></circle><circle r="2.5" cx="800" cy="355.5555555555556" fill="hsla(89, 73%, 48%, 1)" stroke="none"></circle><circle r="2.5" cx="0" cy="400.00000000000006" fill="hsla(0, 0%, 0%, 1)" stroke="none"></circle><circle r="2.5" cx="61.53846153846154" cy="400.00000000000006" fill="hsla(89, 73%, 48%, 1)" stroke="none"></circle><circle r="2.5" cx="123.07692307692308" cy="400.00000000000006" fill="hsla(0, 0%, 0%, 1)" stroke="none"></circle><circle r="2.5" cx="184.6153846153846" cy="400.00000000000006" fill="hsla(89, 73%, 48%, 1)" stroke="none"></circle><circle r="2.5" cx="246.15384615384616" cy="400.00000000000006" fill="hsla(0, 0%, 0%, 1)" stroke="none"></circle><circle r="2.5" cx="307.6923076923077" cy="400.00000000000006" fill="hsla(89, 73%, 48%, 1)" stroke="none"></circle><circle r="2.5" cx="369.2307692307692" cy="400.00000000000006" fill="hsla(0, 0%, 0%, 1)" stroke="none"></circle><circle r="2.5" cx="430.7692307692308" cy="400.00000000000006" fill="hsla(89, 73%, 48%, 1)" stroke="none"></circle><circle r="2.5" cx="492.3076923076923" cy="400.00000000000006" fill="hsla(0, 0%, 0%, 1)" stroke="none"></circle><circle r="2.5" cx="553.8461538461538" cy="400.00000000000006" fill="hsla(89, 73%, 48%, 1)" stroke="none"></circle><circle r="2.5" cx="615.3846153846154" cy="400.00000000000006" fill="hsla(0, 0%, 0%, 1)" stroke="none"></circle><circle r="2.5" cx="676.9230769230769" cy="400.00000000000006" fill="hsla(89, 73%, 48%, 1)" stroke="none"></circle><circle r="2.5" cx="738.4615384615385" cy="400.00000000000006" fill="hsla(0, 0%, 0%, 1)" stroke="none"></circle><circle r="2.5" cx="800" cy="400.00000000000006" fill="hsla(89, 73%, 48%, 1)" stroke="none"></circle><circle r="2.5" cx="0" cy="444.4444444444445" fill="hsla(0, 0%, 0%, 1)" stroke="none"></circle><circle r="2.5" cx="61.53846153846154" cy="444.4444444444445" fill="hsla(89, 73%, 48%, 1)" stroke="none"></circle><circle r="2.5" cx="123.07692307692308" cy="444.4444444444445" fill="hsla(0, 0%, 0%, 1)" stroke="none"></circle><circle r="2.5" cx="184.6153846153846" cy="444.4444444444445" fill="hsla(89, 73%, 48%, 1)" stroke="none"></circle><circle r="2.5" cx="246.15384615384616" cy="444.4444444444445" fill="hsla(0, 0%, 0%, 1)" stroke="none"></circle><circle r="2.5" cx="307.6923076923077" cy="444.4444444444445" fill="hsla(89, 73%, 48%, 1)" stroke="none"></circle><circle r="2.5" cx="369.2307692307692" cy="444.4444444444445" fill="hsla(0, 0%, 0%, 1)" stroke="none"></circle><circle r="2.5" cx="430.7692307692308" cy="444.4444444444445" fill="hsla(89, 73%, 48%, 1)" stroke="none"></circle><circle r="2.5" cx="492.3076923076923" cy="444.4444444444445" fill="hsla(0, 0%, 0%, 1)" stroke="none"></circle><circle r="2.5" cx="553.8461538461538" cy="444.4444444444445" fill="hsla(89, 73%, 48%, 1)" stroke="none"></circle><circle r="2.5" cx="615.3846153846154" cy="444.4444444444445" fill="hsla(0, 0%, 0%, 1)" stroke="none"></circle><circle r="2.5" cx="676.9230769230769" cy="444.4444444444445" fill="hsla(89, 73%, 48%, 1)" stroke="none"></circle><circle r="2.5" cx="738.4615384615385" cy="444.4444444444445" fill="hsla(0, 0%, 0%, 1)" stroke="none"></circle><circle r="2.5" cx="800" cy="444.4444444444445" fill="hsla(89, 73%, 48%, 1)" stroke="none"></circle><circle r="2.5" cx="0" cy="488.88888888888897" fill="hsla(0, 0%, 0%, 1)" stroke="none"></circle><circle r="2.5" cx="61.53846153846154" cy="488.88888888888897" fill="hsla(89, 73%, 48%, 1)" stroke="none"></circle><circle r="2.5" cx="123.07692307692308" cy="488.88888888888897" fill="hsla(0, 0%, 0%, 1)" stroke="none"></circle><circle r="2.5" cx="184.6153846153846" cy="488.88888888888897" fill="hsla(89, 73%, 48%, 1)" stroke="none"></circle><circle r="2.5" cx="246.15384615384616" cy="488.88888888888897" fill="hsla(0, 0%, 0%, 1)" stroke="none"></circle><circle r="2.5" cx="307.6923076923077" cy="488.88888888888897" fill="hsla(89, 73%, 48%, 1)" stroke="none"></circle><circle r="2.5" cx="369.2307692307692" cy="488.88888888888897" fill="hsla(0, 0%, 0%, 1)" stroke="none"></circle><circle r="2.5" cx="430.7692307692308" cy="488.88888888888897" fill="hsla(89, 73%, 48%, 1)" stroke="none"></circle><circle r="2.5" cx="492.3076923076923" cy="488.88888888888897" fill="hsla(0, 0%, 0%, 1)" stroke="none"></circle><circle r="2.5" cx="553.8461538461538" cy="488.88888888888897" fill="hsla(89, 73%, 48%, 1)" stroke="none"></circle><circle r="2.5" cx="615.3846153846154" cy="488.88888888888897" fill="hsla(0, 0%, 0%, 1)" stroke="none"></circle><circle r="2.5" cx="676.9230769230769" cy="488.88888888888897" fill="hsla(89, 73%, 48%, 1)" stroke="none"></circle><circle r="2.5" cx="738.4615384615385" cy="488.88888888888897" fill="hsla(0, 0%, 0%, 1)" stroke="none"></circle><circle r="2.5" cx="800" cy="488.88888888888897" fill="hsla(89, 73%, 48%, 1)" stroke="none"></circle><circle r="2.5" cx="0" cy="533.3333333333334" fill="hsla(0, 0%, 0%, 1)" stroke="none"></circle><circle r="2.5" cx="61.53846153846154" cy="533.3333333333334" fill="hsla(89, 73%, 48%, 1)" stroke="none"></circle><circle r="2.5" cx="123.07692307692308" cy="533.3333333333334" fill="hsla(0, 0%, 0%, 1)" stroke="none"></circle><circle r="2.5" cx="184.6153846153846" cy="533.3333333333334" fill="hsla(89, 73%, 48%, 1)" stroke="none"></circle><circle r="2.5" cx="246.15384615384616" cy="533.3333333333334" fill="hsla(0, 0%, 0%, 1)" stroke="none"></circle><circle r="2.5" cx="307.6923076923077" cy="533.3333333333334" fill="hsla(89, 73%, 48%, 1)" stroke="none"></circle><circle r="2.5" cx="369.2307692307692" cy="533.3333333333334" fill="hsla(0, 0%, 0%, 1)" stroke="none"></circle><circle r="2.5" cx="430.7692307692308" cy="533.3333333333334" fill="hsla(89, 73%, 48%, 1)" stroke="none"></circle><circle r="2.5" cx="492.3076923076923" cy="533.3333333333334" fill="hsla(0, 0%, 0%, 1)" stroke="none"></circle><circle r="2.5" cx="553.8461538461538" cy="533.3333333333334" fill="hsla(89, 73%, 48%, 1)" stroke="none"></circle><circle r="2.5" cx="615.3846153846154" cy="533.3333333333334" fill="hsla(0, 0%, 0%, 1)" stroke="none"></circle><circle r="2.5" cx="676.9230769230769" cy="533.3333333333334" fill="hsla(89, 73%, 48%, 1)" stroke="none"></circle><circle r="2.5" cx="738.4615384615385" cy="533.3333333333334" fill="hsla(0, 0%, 0%, 1)" stroke="none"></circle><circle r="2.5" cx="800" cy="533.3333333333334" fill="hsla(89, 73%, 48%, 1)" stroke="none"></circle><circle r="2.5" cx="0" cy="577.7777777777778" fill="hsla(0, 0%, 0%, 1)" stroke="none"></circle><circle r="2.5" cx="61.53846153846154" cy="577.7777777777778" fill="hsla(89, 73%, 48%, 1)" stroke="none"></circle><circle r="2.5" cx="123.07692307692308" cy="577.7777777777778" fill="hsla(0, 0%, 0%, 1)" stroke="none"></circle><circle r="2.5" cx="184.6153846153846" cy="577.7777777777778" fill="hsla(89, 73%, 48%, 1)" stroke="none"></circle><circle r="2.5" cx="246.15384615384616" cy="577.7777777777778" fill="hsla(0, 0%, 0%, 1)" stroke="none"></circle><circle r="2.5" cx="307.6923076923077" cy="577.7777777777778" fill="hsla(89, 73%, 48%, 1)" stroke="none"></circle><circle r="2.5" cx="369.2307692307692" cy="577.7777777777778" fill="hsla(0, 0%, 0%, 1)" stroke="none"></circle><circle r="2.5" cx="430.7692307692308" cy="577.7777777777778" fill="hsla(89, 73%, 48%, 1)" stroke="none"></circle><circle r="2.5" cx="492.3076923076923" cy="577.7777777777778" fill="hsla(0, 0%, 0%, 1)" stroke="none"></circle><circle r="2.5" cx="553.8461538461538" cy="577.7777777777778" fill="hsla(89, 73%, 48%, 1)" stroke="none"></circle><circle r="2.5" cx="615.3846153846154" cy="577.7777777777778" fill="hsla(0, 0%, 0%, 1)" stroke="none"></circle><circle r="2.5" cx="676.9230769230769" cy="577.7777777777778" fill="hsla(89, 73%, 48%, 1)" stroke="none"></circle><circle r="2.5" cx="738.4615384615385" cy="577.7777777777778" fill="hsla(0, 0%, 0%, 1)" stroke="none"></circle><circle r="2.5" cx="800" cy="577.7777777777778" fill="hsla(89, 73%, 48%, 1)" stroke="none"></circle><circle r="2.5" cx="0" cy="622.2222222222223" fill="hsla(0, 0%, 0%, 1)" stroke="none"></circle><circle r="2.5" cx="61.53846153846154" cy="622.2222222222223" fill="hsla(89, 73%, 48%, 1)" stroke="none"></circle><circle r="2.5" cx="123.07692307692308" cy="622.2222222222223" fill="hsla(0, 0%, 0%, 1)" stroke="none"></circle><circle r="2.5" cx="184.6153846153846" cy="622.2222222222223" fill="hsla(89, 73%, 48%, 1)" stroke="none"></circle><circle r="2.5" cx="246.15384615384616" cy="622.2222222222223" fill="hsla(0, 0%, 0%, 1)" stroke="none"></circle><circle r="2.5" cx="307.6923076923077" cy="622.2222222222223" fill="hsla(89, 73%, 48%, 1)" stroke="none"></circle><circle r="2.5" cx="369.2307692307692" cy="622.2222222222223" fill="hsla(0, 0%, 0%, 1)" stroke="none"></circle><circle r="2.5" cx="430.7692307692308" cy="622.2222222222223" fill="hsla(89, 73%, 48%, 1)" stroke="none"></circle><circle r="2.5" cx="492.3076923076923" cy="622.2222222222223" fill="hsla(0, 0%, 0%, 1)" stroke="none"></circle><circle r="2.5" cx="553.8461538461538" cy="622.2222222222223" fill="hsla(89, 73%, 48%, 1)" stroke="none"></circle><circle r="2.5" cx="615.3846153846154" cy="622.2222222222223" fill="hsla(0, 0%, 0%, 1)" stroke="none"></circle><circle r="2.5" cx="676.9230769230769" cy="622.2222222222223" fill="hsla(89, 73%, 48%, 1)" stroke="none"></circle><circle r="2.5" cx="738.4615384615385" cy="622.2222222222223" fill="hsla(0, 0%, 0%, 1)" stroke="none"></circle><circle r="2.5" cx="800" cy="622.2222222222223" fill="hsla(89, 73%, 48%, 1)" stroke="none"></circle><circle r="2.5" cx="0" cy="666.6666666666667" fill="hsla(0, 0%, 0%, 1)" stroke="none"></circle><circle r="2.5" cx="61.53846153846154" cy="666.6666666666667" fill="hsla(89, 73%, 48%, 1)" stroke="none"></circle><circle r="2.5" cx="123.07692307692308" cy="666.6666666666667" fill="hsla(0, 0%, 0%, 1)" stroke="none"></circle><circle r="2.5" cx="184.6153846153846" cy="666.6666666666667" fill="hsla(89, 73%, 48%, 1)" stroke="none"></circle><circle r="2.5" cx="246.15384615384616" cy="666.6666666666667" fill="hsla(0, 0%, 0%, 1)" stroke="none"></circle><circle r="2.5" cx="307.6923076923077" cy="666.6666666666667" fill="hsla(89, 73%, 48%, 1)" stroke="none"></circle><circle r="2.5" cx="369.2307692307692" cy="666.6666666666667" fill="hsla(0, 0%, 0%, 1)" stroke="none"></circle><circle r="2.5" cx="430.7692307692308" cy="666.6666666666667" fill="hsla(89, 73%, 48%, 1)" stroke="none"></circle><circle r="2.5" cx="492.3076923076923" cy="666.6666666666667" fill="hsla(0, 0%, 0%, 1)" stroke="none"></circle><circle r="2.5" cx="553.8461538461538" cy="666.6666666666667" fill="hsla(89, 73%, 48%, 1)" stroke="none"></circle><circle r="2.5" cx="615.3846153846154" cy="666.6666666666667" fill="hsla(0, 0%, 0%, 1)" stroke="none"></circle><circle r="2.5" cx="676.9230769230769" cy="666.6666666666667" fill="hsla(89, 73%, 48%, 1)" stroke="none"></circle><circle r="2.5" cx="738.4615384615385" cy="666.6666666666667" fill="hsla(0, 0%, 0%, 1)" stroke="none"></circle><circle r="2.5" cx="800" cy="666.6666666666667" fill="hsla(89, 73%, 48%, 1)" stroke="none"></circle><circle r="2.5" cx="0" cy="711.1111111111112" fill="hsla(0, 0%, 0%, 1)" stroke="none"></circle><circle r="2.5" cx="61.53846153846154" cy="711.1111111111112" fill="hsla(89, 73%, 48%, 1)" stroke="none"></circle><circle r="2.5" cx="123.07692307692308" cy="711.1111111111112" fill="hsla(0, 0%, 0%, 1)" stroke="none"></circle><circle r="2.5" cx="184.6153846153846" cy="711.1111111111112" fill="hsla(89, 73%, 48%, 1)" stroke="none"></circle><circle r="2.5" cx="246.15384615384616" cy="711.1111111111112" fill="hsla(0, 0%, 0%, 1)" stroke="none"></circle><circle r="2.5" cx="307.6923076923077" cy="711.1111111111112" fill="hsla(89, 73%, 48%, 1)" stroke="none"></circle><circle r="2.5" cx="369.2307692307692" cy="711.1111111111112" fill="hsla(0, 0%, 0%, 1)" stroke="none"></circle><circle r="2.5" cx="430.7692307692308" cy="711.1111111111112" fill="hsla(89, 73%, 48%, 1)" stroke="none"></circle><circle r="2.5" cx="492.3076923076923" cy="711.1111111111112" fill="hsla(0, 0%, 0%, 1)" stroke="none"></circle><circle r="2.5" cx="553.8461538461538" cy="711.1111111111112" fill="hsla(89, 73%, 48%, 1)" stroke="none"></circle><circle r="2.5" cx="615.3846153846154" cy="711.1111111111112" fill="hsla(0, 0%, 0%, 1)" stroke="none"></circle><circle r="2.5" cx="676.9230769230769" cy="711.1111111111112" fill="hsla(89, 73%, 48%, 1)" stroke="none"></circle><circle r="2.5" cx="738.4615384615385" cy="711.1111111111112" fill="hsla(0, 0%, 0%, 1)" stroke="none"></circle><circle r="2.5" cx="800" cy="711.1111111111112" fill="hsla(89, 73%, 48%, 1)" stroke="none"></circle><circle r="2.5" cx="0" cy="755.5555555555557" fill="hsla(0, 0%, 0%, 1)" stroke="none"></circle><circle r="2.5" cx="61.53846153846154" cy="755.5555555555557" fill="hsla(89, 73%, 48%, 1)" stroke="none"></circle><circle r="2.5" cx="123.07692307692308" cy="755.5555555555557" fill="hsla(0, 0%, 0%, 1)" stroke="none"></circle><circle r="2.5" cx="184.6153846153846" cy="755.5555555555557" fill="hsla(89, 73%, 48%, 1)" stroke="none"></circle><circle r="2.5" cx="246.15384615384616" cy="755.5555555555557" fill="hsla(0, 0%, 0%, 1)" stroke="none"></circle><circle r="2.5" cx="307.6923076923077" cy="755.5555555555557" fill="hsla(89, 73%, 48%, 1)" stroke="none"></circle><circle r="2.5" cx="369.2307692307692" cy="755.5555555555557" fill="hsla(0, 0%, 0%, 1)" stroke="none"></circle><circle r="2.5" cx="430.7692307692308" cy="755.5555555555557" fill="hsla(89, 73%, 48%, 1)" stroke="none"></circle><circle r="2.5" cx="492.3076923076923" cy="755.5555555555557" fill="hsla(0, 0%, 0%, 1)" stroke="none"></circle><circle r="2.5" cx="553.8461538461538" cy="755.5555555555557" fill="hsla(89, 73%, 48%, 1)" stroke="none"></circle><circle r="2.5" cx="615.3846153846154" cy="755.5555555555557" fill="hsla(0, 0%, 0%, 1)" stroke="none"></circle><circle r="2.5" cx="676.9230769230769" cy="755.5555555555557" fill="hsla(89, 73%, 48%, 1)" stroke="none"></circle><circle r="2.5" cx="738.4615384615385" cy="755.5555555555557" fill="hsla(0, 0%, 0%, 1)" stroke="none"></circle><circle r="2.5" cx="800" cy="755.5555555555557" fill="hsla(89, 73%, 48%, 1)" stroke="none"></circle><circle r="2.5" cx="0" cy="800.0000000000001" fill="hsla(0, 0%, 0%, 1)" stroke="none"></circle><circle r="2.5" cx="61.53846153846154" cy="800.0000000000001" fill="hsla(89, 73%, 48%, 1)" stroke="none"></circle><circle r="2.5" cx="123.07692307692308" cy="800.0000000000001" fill="hsla(0, 0%, 0%, 1)" stroke="none"></circle><circle r="2.5" cx="184.6153846153846" cy="800.0000000000001" fill="hsla(89, 73%, 48%, 1)" stroke="none"></circle><circle r="2.5" cx="246.15384615384616" cy="800.0000000000001" fill="hsla(0, 0%, 0%, 1)" stroke="none"></circle><circle r="2.5" cx="307.6923076923077" cy="800.0000000000001" fill="hsla(89, 73%, 48%, 1)" stroke="none"></circle><circle r="2.5" cx="369.2307692307692" cy="800.0000000000001" fill="hsla(0, 0%, 0%, 1)" stroke="none"></circle><circle r="2.5" cx="430.7692307692308" cy="800.0000000000001" fill="hsla(89, 73%, 48%, 1)" stroke="none"></circle><circle r="2.5" cx="492.3076923076923" cy="800.0000000000001" fill="hsla(0, 0%, 0%, 1)" stroke="none"></circle><circle r="2.5" cx="553.8461538461538" cy="800.0000000000001" fill="hsla(89, 73%, 48%, 1)" stroke="none"></circle><circle r="2.5" cx="615.3846153846154" cy="800.0000000000001" fill="hsla(0, 0%, 0%, 1)" stroke="none"></circle><circle r="2.5" cx="676.9230769230769" cy="800.0000000000001" fill="hsla(89, 73%, 48%, 1)" stroke="none"></circle><circle r="2.5" cx="738.4615384615385" cy="800.0000000000001" fill="hsla(0, 0%, 0%, 1)" stroke="none"></circle><circle r="2.5" cx="800" cy="800.0000000000001" fill="hsla(89, 73%, 48%, 1)" stroke="none"></circle></g></svg>