<svg xmlns="http://www.w3.org/2000/svg" version="1.1" xmlns:xlink="http://www.w3.org/1999/xlink" xmlns:svgjs="http://svgjs.dev/svgjs" viewBox="0 0 800 800" opacity="1" width="800" height="800"><g stroke-width="0.5" stroke="hsla(0, 0%, 0%, 1)" fill="none"><rect width="5" height="5" x="-2.5" y="-2.5" fill="hsla(0, 0%, 0%, 1)" stroke="none" transform="rotate(45, 0, 0)"></rect><rect width="5" height="5" x="59.03846153846154" y="-2.5" fill="hsla(0, 0%, 0%, 1)" stroke="none" transform="rotate(45, 61.53846153846154, 0)"></rect><rect width="5" height="5" x="120.57692307692308" y="-2.5" fill="hsla(0, 0%, 0%, 1)" stroke="none" transform="rotate(45, 123.07692307692308, 0)"></rect><rect width="5" height="5" x="182.1153846153846" y="-2.5" fill="hsla(0, 0%, 0%, 1)" stroke="none" transform="rotate(45, 184.6153846153846, 0)"></rect><rect width="5" height="5" x="243.65384615384616" y="-2.5" fill="hsla(0, 0%, 0%, 1)" stroke="none" transform="rotate(45, 246.15384615384616, 0)"></rect><rect width="5" height="5" x="305.1923076923077" y="-2.5" fill="hsla(0, 0%, 0%, 1)" stroke="none" transform="rotate(45, 307.6923076923077, 0)"></rect><rect width="5" height="5" x="366.7307692307692" y="-2.5" fill="hsla(0, 0%, 0%, 1)" stroke="none" transform="rotate(45, 369.2307692307692, 0)"></rect><rect width="5" height="5" x="428.2692307692308" y="-2.5" fill="hsla(0, 0%, 0%, 1)" stroke="none" transform="rotate(45, 430.7692307692308, 0)"></rect><rect width="5" height="5" x="489.8076923076923" y="-2.5" fill="hsla(0, 0%, 0%, 1)" stroke="none" transform="rotate(45, 492.3076923076923, 0)"></rect><rect width="5" height="5" x="551.3461538461538" y="-2.5" fill="hsla(0, 0%, 0%, 1)" stroke="none" transform="rotate(45, 553.8461538461538, 0)"></rect><rect width="5" height="5" x="612.8846153846154" y="-2.5" fill="hsla(0, 0%, 0%, 1)" stroke="none" transform="rotate(45, 615.3846153846154, 0)"></rect><rect width="5" height="5" x="674.4230769230769" y="-2.5" fill="hsla(0, 0%, 0%, 1)" stroke="none" transform="rotate(45, 676.9230769230769, 0)"></rect><rect width="5" height="5" x="735.9615384615385" y="-2.5" fill="hsla(0, 0%, 0%, 1)" stroke="none" transform="rotate(45, 738.4615384615385, 0)"></rect><rect width="5" height="5" x="797.5" y="-2.5" fill="hsla(0, 0%, 0%, 1)" stroke="none" transform="rotate(45, 800, 0)"></rect><rect width="5" height="5" x="-2.5" y="41.94444444444444" fill="hsla(0, 0%, 0%, 1)" stroke="none" transform="rotate(45, 0, 44.44444444444444)"></rect><rect width="5" height="5" x="59.03846153846154" y="41.94444444444444" fill="hsla(0, 0%, 0%, 1)" stroke="none" transform="rotate(45, 61.53846153846154, 44.44444444444444)"></rect><rect width="5" height="5" x="120.57692307692308" y="41.94444444444444" fill="hsla(0, 0%, 0%, 1)" stroke="none" transform="rotate(45, 123.07692307692308, 44.44444444444444)"></rect><rect width="5" height="5" x="182.1153846153846" y="41.94444444444444" fill="hsla(0, 0%, 0%, 1)" stroke="none" transform="rotate(45, 184.6153846153846, 44.44444444444444)"></rect><rect width="5" height="5" x="243.65384615384616" y="41.94444444444444" fill="hsla(0, 0%, 0%, 1)" stroke="none" transform="rotate(45, 246.15384615384616, 44.44444444444444)"></rect><rect width="5" height="5" x="305.1923076923077" y="41.94444444444444" fill="hsla(0, 0%, 0%, 1)" stroke="none" transform="rotate(45, 307.6923076923077, 44.44444444444444)"></rect><rect width="5" height="5" x="366.7307692307692" y="41.94444444444444" fill="hsla(0, 0%, 0%, 1)" stroke="none" transform="rotate(45, 369.2307692307692, 44.44444444444444)"></rect><rect width="5" height="5" x="428.2692307692308" y="41.94444444444444" fill="hsla(0, 0%, 0%, 1)" stroke="none" transform="rotate(45, 430.7692307692308, 44.44444444444444)"></rect><rect width="5" height="5" x="489.8076923076923" y="41.94444444444444" fill="hsla(0, 0%, 0%, 1)" stroke="none" transform="rotate(45, 492.3076923076923, 44.44444444444444)"></rect><rect width="5" height="5" x="551.3461538461538" y="41.94444444444444" fill="hsla(0, 0%, 0%, 1)" stroke="none" transform="rotate(45, 553.8461538461538, 44.44444444444444)"></rect><rect width="5" height="5" x="612.8846153846154" y="41.94444444444444" fill="hsla(0, 0%, 0%, 1)" stroke="none" transform="rotate(45, 615.3846153846154, 44.44444444444444)"></rect><rect width="5" height="5" x="674.4230769230769" y="41.94444444444444" fill="hsla(0, 0%, 0%, 1)" stroke="none" transform="rotate(45, 676.9230769230769, 44.44444444444444)"></rect><rect width="5" height="5" x="735.9615384615385" y="41.94444444444444" fill="hsla(0, 0%, 0%, 1)" stroke="none" transform="rotate(45, 738.4615384615385, 44.44444444444444)"></rect><rect width="5" height="5" x="797.5" y="41.94444444444444" fill="hsla(0, 0%, 0%, 1)" stroke="none" transform="rotate(45, 800, 44.44444444444444)"></rect><rect width="5" height="5" x="-2.5" y="86.38888888888889" fill="hsla(0, 0%, 0%, 1)" stroke="none" transform="rotate(45, 0, 88.88888888888889)"></rect><rect width="5" height="5" x="59.03846153846154" y="86.38888888888889" fill="hsla(0, 0%, 0%, 1)" stroke="none" transform="rotate(45, 61.53846153846154, 88.88888888888889)"></rect><rect width="5" height="5" x="120.57692307692308" y="86.38888888888889" fill="hsla(0, 0%, 0%, 1)" stroke="none" transform="rotate(45, 123.07692307692308, 88.88888888888889)"></rect><rect width="5" height="5" x="182.1153846153846" y="86.38888888888889" fill="hsla(0, 0%, 0%, 1)" stroke="none" transform="rotate(45, 184.6153846153846, 88.88888888888889)"></rect><rect width="5" height="5" x="243.65384615384616" y="86.38888888888889" fill="hsla(0, 0%, 0%, 1)" stroke="none" transform="rotate(45, 246.15384615384616, 88.88888888888889)"></rect><rect width="5" height="5" x="305.1923076923077" y="86.38888888888889" fill="hsla(0, 0%, 0%, 1)" stroke="none" transform="rotate(45, 307.6923076923077, 88.88888888888889)"></rect><rect width="5" height="5" x="366.7307692307692" y="86.38888888888889" fill="hsla(0, 0%, 0%, 1)" stroke="none" transform="rotate(45, 369.2307692307692, 88.88888888888889)"></rect><rect width="5" height="5" x="428.2692307692308" y="86.38888888888889" fill="hsla(0, 0%, 0%, 1)" stroke="none" transform="rotate(45, 430.7692307692308, 88.88888888888889)"></rect><rect width="5" height="5" x="489.8076923076923" y="86.38888888888889" fill="hsla(0, 0%, 0%, 1)" stroke="none" transform="rotate(45, 492.3076923076923, 88.88888888888889)"></rect><rect width="5" height="5" x="551.3461538461538" y="86.38888888888889" fill="hsla(0, 0%, 0%, 1)" stroke="none" transform="rotate(45, 553.8461538461538, 88.88888888888889)"></rect><rect width="5" height="5" x="612.8846153846154" y="86.38888888888889" fill="hsla(0, 0%, 0%, 1)" stroke="none" transform="rotate(45, 615.3846153846154, 88.88888888888889)"></rect><rect width="5" height="5" x="674.4230769230769" y="86.38888888888889" fill="hsla(0, 0%, 0%, 1)" stroke="none" transform="rotate(45, 676.9230769230769, 88.88888888888889)"></rect><rect width="5" height="5" x="735.9615384615385" y="86.38888888888889" fill="hsla(0, 0%, 0%, 1)" stroke="none" transform="rotate(45, 738.4615384615385, 88.88888888888889)"></rect><rect width="5" height="5" x="797.5" y="86.38888888888889" fill="hsla(0, 0%, 0%, 1)" stroke="none" transform="rotate(45, 800, 88.88888888888889)"></rect><rect width="5" height="5" x="-2.5" y="130.83333333333331" fill="hsla(0, 0%, 0%, 1)" stroke="none" transform="rotate(45, 0, 133.33333333333331)"></rect><rect width="5" height="5" x="59.03846153846154" y="130.83333333333331" fill="hsla(0, 0%, 0%, 1)" stroke="none" transform="rotate(45, 61.53846153846154, 133.33333333333331)"></rect><rect width="5" height="5" x="120.57692307692308" y="130.83333333333331" fill="hsla(0, 0%, 0%, 1)" stroke="none" transform="rotate(45, 123.07692307692308, 133.33333333333331)"></rect><rect width="5" height="5" x="182.1153846153846" y="130.83333333333331" fill="hsla(0, 0%, 0%, 1)" stroke="none" transform="rotate(45, 184.6153846153846, 133.33333333333331)"></rect><rect width="5" height="5" x="243.65384615384616" y="130.83333333333331" fill="hsla(0, 0%, 0%, 1)" stroke="none" transform="rotate(45, 246.15384615384616, 133.33333333333331)"></rect><rect width="5" height="5" x="305.1923076923077" y="130.83333333333331" fill="hsla(0, 0%, 0%, 1)" stroke="none" transform="rotate(45, 307.6923076923077, 133.33333333333331)"></rect><rect width="5" height="5" x="366.7307692307692" y="130.83333333333331" fill="hsla(0, 0%, 0%, 1)" stroke="none" transform="rotate(45, 369.2307692307692, 133.33333333333331)"></rect><rect width="5" height="5" x="428.2692307692308" y="130.83333333333331" fill="hsla(0, 0%, 0%, 1)" stroke="none" transform="rotate(45, 430.7692307692308, 133.33333333333331)"></rect><rect width="5" height="5" x="489.8076923076923" y="130.83333333333331" fill="hsla(0, 0%, 0%, 1)" stroke="none" transform="rotate(45, 492.3076923076923, 133.33333333333331)"></rect><rect width="5" height="5" x="551.3461538461538" y="130.83333333333331" fill="hsla(0, 0%, 0%, 1)" stroke="none" transform="rotate(45, 553.8461538461538, 133.33333333333331)"></rect><rect width="5" height="5" x="612.8846153846154" y="130.83333333333331" fill="hsla(0, 0%, 0%, 1)" stroke="none" transform="rotate(45, 615.3846153846154, 133.33333333333331)"></rect><rect width="5" height="5" x="674.4230769230769" y="130.83333333333331" fill="hsla(0, 0%, 0%, 1)" stroke="none" transform="rotate(45, 676.9230769230769, 133.33333333333331)"></rect><rect width="5" height="5" x="735.9615384615385" y="130.83333333333331" fill="hsla(0, 0%, 0%, 1)" stroke="none" transform="rotate(45, 738.4615384615385, 133.33333333333331)"></rect><rect width="5" height="5" x="797.5" y="130.83333333333331" fill="hsla(0, 0%, 0%, 1)" stroke="none" transform="rotate(45, 800, 133.33333333333331)"></rect><rect width="5" height="5" x="-2.5" y="175.27777777777777" fill="hsla(0, 0%, 0%, 1)" stroke="none" transform="rotate(45, 0, 177.77777777777777)"></rect><rect width="5" height="5" x="59.03846153846154" y="175.27777777777777" fill="hsla(0, 0%, 0%, 1)" stroke="none" transform="rotate(45, 61.53846153846154, 177.77777777777777)"></rect><rect width="5" height="5" x="120.57692307692308" y="175.27777777777777" fill="hsla(0, 0%, 0%, 1)" stroke="none" transform="rotate(45, 123.07692307692308, 177.77777777777777)"></rect><rect width="5" height="5" x="182.1153846153846" y="175.27777777777777" fill="hsla(0, 0%, 0%, 1)" stroke="none" transform="rotate(45, 184.6153846153846, 177.77777777777777)"></rect><rect width="5" height="5" x="243.65384615384616" y="175.27777777777777" fill="hsla(0, 0%, 0%, 1)" stroke="none" transform="rotate(45, 246.15384615384616, 177.77777777777777)"></rect><rect width="5" height="5" x="305.1923076923077" y="175.27777777777777" fill="hsla(0, 0%, 0%, 1)" stroke="none" transform="rotate(45, 307.6923076923077, 177.77777777777777)"></rect><rect width="5" height="5" x="366.7307692307692" y="175.27777777777777" fill="hsla(0, 0%, 0%, 1)" stroke="none" transform="rotate(45, 369.2307692307692, 177.77777777777777)"></rect><rect width="5" height="5" x="428.2692307692308" y="175.27777777777777" fill="hsla(0, 0%, 0%, 1)" stroke="none" transform="rotate(45, 430.7692307692308, 177.77777777777777)"></rect><rect width="5" height="5" x="489.8076923076923" y="175.27777777777777" fill="hsla(0, 0%, 0%, 1)" stroke="none" transform="rotate(45, 492.3076923076923, 177.77777777777777)"></rect><rect width="5" height="5" x="551.3461538461538" y="175.27777777777777" fill="hsla(0, 0%, 0%, 1)" stroke="none" transform="rotate(45, 553.8461538461538, 177.77777777777777)"></rect><rect width="5" height="5" x="612.8846153846154" y="175.27777777777777" fill="hsla(0, 0%, 0%, 1)" stroke="none" transform="rotate(45, 615.3846153846154, 177.77777777777777)"></rect><rect width="5" height="5" x="674.4230769230769" y="175.27777777777777" fill="hsla(0, 0%, 0%, 1)" stroke="none" transform="rotate(45, 676.9230769230769, 177.77777777777777)"></rect><rect width="5" height="5" x="735.9615384615385" y="175.27777777777777" fill="hsla(0, 0%, 0%, 1)" stroke="none" transform="rotate(45, 738.4615384615385, 177.77777777777777)"></rect><rect width="5" height="5" x="797.5" y="175.27777777777777" fill="hsla(0, 0%, 0%, 1)" stroke="none" transform="rotate(45, 800, 177.77777777777777)"></rect><rect width="5" height="5" x="-2.5" y="219.72222222222223" fill="hsla(0, 0%, 0%, 1)" stroke="none" transform="rotate(45, 0, 222.22222222222223)"></rect><rect width="5" height="5" x="59.03846153846154" y="219.72222222222223" fill="hsla(0, 0%, 0%, 1)" stroke="none" transform="rotate(45, 61.53846153846154, 222.22222222222223)"></rect><rect width="5" height="5" x="120.57692307692308" y="219.72222222222223" fill="hsla(0, 0%, 0%, 1)" stroke="none" transform="rotate(45, 123.07692307692308, 222.22222222222223)"></rect><rect width="5" height="5" x="182.1153846153846" y="219.72222222222223" fill="hsla(0, 0%, 0%, 1)" stroke="none" transform="rotate(45, 184.6153846153846, 222.22222222222223)"></rect><rect width="5" height="5" x="243.65384615384616" y="219.72222222222223" fill="hsla(0, 0%, 0%, 1)" stroke="none" transform="rotate(45, 246.15384615384616, 222.22222222222223)"></rect><rect width="5" height="5" x="305.1923076923077" y="219.72222222222223" fill="hsla(0, 0%, 0%, 1)" stroke="none" transform="rotate(45, 307.6923076923077, 222.22222222222223)"></rect><rect width="5" height="5" x="366.7307692307692" y="219.72222222222223" fill="hsla(0, 0%, 0%, 1)" stroke="none" transform="rotate(45, 369.2307692307692, 222.22222222222223)"></rect><rect width="5" height="5" x="428.2692307692308" y="219.72222222222223" fill="hsla(0, 0%, 0%, 1)" stroke="none" transform="rotate(45, 430.7692307692308, 222.22222222222223)"></rect><rect width="5" height="5" x="489.8076923076923" y="219.72222222222223" fill="hsla(0, 0%, 0%, 1)" stroke="none" transform="rotate(45, 492.3076923076923, 222.22222222222223)"></rect><rect width="5" height="5" x="551.3461538461538" y="219.72222222222223" fill="hsla(0, 0%, 0%, 1)" stroke="none" transform="rotate(45, 553.8461538461538, 222.22222222222223)"></rect><rect width="5" height="5" x="612.8846153846154" y="219.72222222222223" fill="hsla(0, 0%, 0%, 1)" stroke="none" transform="rotate(45, 615.3846153846154, 222.22222222222223)"></rect><rect width="5" height="5" x="674.4230769230769" y="219.72222222222223" fill="hsla(0, 0%, 0%, 1)" stroke="none" transform="rotate(45, 676.9230769230769, 222.22222222222223)"></rect><rect width="5" height="5" x="735.9615384615385" y="219.72222222222223" fill="hsla(0, 0%, 0%, 1)" stroke="none" transform="rotate(45, 738.4615384615385, 222.22222222222223)"></rect><rect width="5" height="5" x="797.5" y="219.72222222222223" fill="hsla(0, 0%, 0%, 1)" stroke="none" transform="rotate(45, 800, 222.22222222222223)"></rect><rect width="5" height="5" x="-2.5" y="264.1666666666667" fill="hsla(0, 0%, 0%, 1)" stroke="none" transform="rotate(45, 0, 266.6666666666667)"></rect><rect width="5" height="5" x="59.03846153846154" y="264.1666666666667" fill="hsla(0, 0%, 0%, 1)" stroke="none" transform="rotate(45, 61.53846153846154, 266.6666666666667)"></rect><rect width="5" height="5" x="120.57692307692308" y="264.1666666666667" fill="hsla(0, 0%, 0%, 1)" stroke="none" transform="rotate(45, 123.07692307692308, 266.6666666666667)"></rect><rect width="5" height="5" x="182.1153846153846" y="264.1666666666667" fill="hsla(0, 0%, 0%, 1)" stroke="none" transform="rotate(45, 184.6153846153846, 266.6666666666667)"></rect><rect width="5" height="5" x="243.65384615384616" y="264.1666666666667" fill="hsla(0, 0%, 0%, 1)" stroke="none" transform="rotate(45, 246.15384615384616, 266.6666666666667)"></rect><rect width="5" height="5" x="305.1923076923077" y="264.1666666666667" fill="hsla(0, 0%, 0%, 1)" stroke="none" transform="rotate(45, 307.6923076923077, 266.6666666666667)"></rect><rect width="5" height="5" x="366.7307692307692" y="264.1666666666667" fill="hsla(0, 0%, 0%, 1)" stroke="none" transform="rotate(45, 369.2307692307692, 266.6666666666667)"></rect><rect width="5" height="5" x="428.2692307692308" y="264.1666666666667" fill="hsla(0, 0%, 0%, 1)" stroke="none" transform="rotate(45, 430.7692307692308, 266.6666666666667)"></rect><rect width="5" height="5" x="489.8076923076923" y="264.1666666666667" fill="hsla(0, 0%, 0%, 1)" stroke="none" transform="rotate(45, 492.3076923076923, 266.6666666666667)"></rect><rect width="5" height="5" x="551.3461538461538" y="264.1666666666667" fill="hsla(0, 0%, 0%, 1)" stroke="none" transform="rotate(45, 553.8461538461538, 266.6666666666667)"></rect><rect width="5" height="5" x="612.8846153846154" y="264.1666666666667" fill="hsla(0, 0%, 0%, 1)" stroke="none" transform="rotate(45, 615.3846153846154, 266.6666666666667)"></rect><rect width="5" height="5" x="674.4230769230769" y="264.1666666666667" fill="hsla(0, 0%, 0%, 1)" stroke="none" transform="rotate(45, 676.9230769230769, 266.6666666666667)"></rect><rect width="5" height="5" x="735.9615384615385" y="264.1666666666667" fill="hsla(0, 0%, 0%, 1)" stroke="none" transform="rotate(45, 738.4615384615385, 266.6666666666667)"></rect><rect width="5" height="5" x="797.5" y="264.1666666666667" fill="hsla(0, 0%, 0%, 1)" stroke="none" transform="rotate(45, 800, 266.6666666666667)"></rect><rect width="5" height="5" x="-2.5" y="308.61111111111114" fill="hsla(0, 0%, 0%, 1)" stroke="none" transform="rotate(45, 0, 311.11111111111114)"></rect><rect width="5" height="5" x="59.03846153846154" y="308.61111111111114" fill="hsla(0, 0%, 0%, 1)" stroke="none" transform="rotate(45, 61.53846153846154, 311.11111111111114)"></rect><rect width="5" height="5" x="120.57692307692308" y="308.61111111111114" fill="hsla(0, 0%, 0%, 1)" stroke="none" transform="rotate(45, 123.07692307692308, 311.11111111111114)"></rect><rect width="5" height="5" x="182.1153846153846" y="308.61111111111114" fill="hsla(0, 0%, 0%, 1)" stroke="none" transform="rotate(45, 184.6153846153846, 311.11111111111114)"></rect><rect width="5" height="5" x="243.65384615384616" y="308.61111111111114" fill="hsla(0, 0%, 0%, 1)" stroke="none" transform="rotate(45, 246.15384615384616, 311.11111111111114)"></rect><rect width="5" height="5" x="305.1923076923077" y="308.61111111111114" fill="hsla(0, 0%, 0%, 1)" stroke="none" transform="rotate(45, 307.6923076923077, 311.11111111111114)"></rect><rect width="5" height="5" x="366.7307692307692" y="308.61111111111114" fill="hsla(0, 0%, 0%, 1)" stroke="none" transform="rotate(45, 369.2307692307692, 311.11111111111114)"></rect><rect width="5" height="5" x="428.2692307692308" y="308.61111111111114" fill="hsla(0, 0%, 0%, 1)" stroke="none" transform="rotate(45, 430.7692307692308, 311.11111111111114)"></rect><rect width="5" height="5" x="489.8076923076923" y="308.61111111111114" fill="hsla(0, 0%, 0%, 1)" stroke="none" transform="rotate(45, 492.3076923076923, 311.11111111111114)"></rect><rect width="5" height="5" x="551.3461538461538" y="308.61111111111114" fill="hsla(0, 0%, 0%, 1)" stroke="none" transform="rotate(45, 553.8461538461538, 311.11111111111114)"></rect><rect width="5" height="5" x="612.8846153846154" y="308.61111111111114" fill="hsla(0, 0%, 0%, 1)" stroke="none" transform="rotate(45, 615.3846153846154, 311.11111111111114)"></rect><rect width="5" height="5" x="674.4230769230769" y="308.61111111111114" fill="hsla(0, 0%, 0%, 1)" stroke="none" transform="rotate(45, 676.9230769230769, 311.11111111111114)"></rect><rect width="5" height="5" x="735.9615384615385" y="308.61111111111114" fill="hsla(0, 0%, 0%, 1)" stroke="none" transform="rotate(45, 738.4615384615385, 311.11111111111114)"></rect><rect width="5" height="5" x="797.5" y="308.61111111111114" fill="hsla(0, 0%, 0%, 1)" stroke="none" transform="rotate(45, 800, 311.11111111111114)"></rect><rect width="5" height="5" x="-2.5" y="353.0555555555556" fill="hsla(0, 0%, 0%, 1)" stroke="none" transform="rotate(45, 0, 355.5555555555556)"></rect><rect width="5" height="5" x="59.03846153846154" y="353.0555555555556" fill="hsla(0, 0%, 0%, 1)" stroke="none" transform="rotate(45, 61.53846153846154, 355.5555555555556)"></rect><rect width="5" height="5" x="120.57692307692308" y="353.0555555555556" fill="hsla(0, 0%, 0%, 1)" stroke="none" transform="rotate(45, 123.07692307692308, 355.5555555555556)"></rect><rect width="5" height="5" x="182.1153846153846" y="353.0555555555556" fill="hsla(0, 0%, 0%, 1)" stroke="none" transform="rotate(45, 184.6153846153846, 355.5555555555556)"></rect><rect width="5" height="5" x="243.65384615384616" y="353.0555555555556" fill="hsla(0, 0%, 0%, 1)" stroke="none" transform="rotate(45, 246.15384615384616, 355.5555555555556)"></rect><rect width="5" height="5" x="305.1923076923077" y="353.0555555555556" fill="hsla(0, 0%, 0%, 1)" stroke="none" transform="rotate(45, 307.6923076923077, 355.5555555555556)"></rect><rect width="5" height="5" x="366.7307692307692" y="353.0555555555556" fill="hsla(0, 0%, 0%, 1)" stroke="none" transform="rotate(45, 369.2307692307692, 355.5555555555556)"></rect><rect width="5" height="5" x="428.2692307692308" y="353.0555555555556" fill="hsla(0, 0%, 0%, 1)" stroke="none" transform="rotate(45, 430.7692307692308, 355.5555555555556)"></rect><rect width="5" height="5" x="489.8076923076923" y="353.0555555555556" fill="hsla(0, 0%, 0%, 1)" stroke="none" transform="rotate(45, 492.3076923076923, 355.5555555555556)"></rect><rect width="5" height="5" x="551.3461538461538" y="353.0555555555556" fill="hsla(0, 0%, 0%, 1)" stroke="none" transform="rotate(45, 553.8461538461538, 355.5555555555556)"></rect><rect width="5" height="5" x="612.8846153846154" y="353.0555555555556" fill="hsla(0, 0%, 0%, 1)" stroke="none" transform="rotate(45, 615.3846153846154, 355.5555555555556)"></rect><rect width="5" height="5" x="674.4230769230769" y="353.0555555555556" fill="hsla(0, 0%, 0%, 1)" stroke="none" transform="rotate(45, 676.9230769230769, 355.5555555555556)"></rect><rect width="5" height="5" x="735.9615384615385" y="353.0555555555556" fill="hsla(0, 0%, 0%, 1)" stroke="none" transform="rotate(45, 738.4615384615385, 355.5555555555556)"></rect><rect width="5" height="5" x="797.5" y="353.0555555555556" fill="hsla(0, 0%, 0%, 1)" stroke="none" transform="rotate(45, 800, 355.5555555555556)"></rect><rect width="5" height="5" x="-2.5" y="397.50000000000006" fill="hsla(0, 0%, 0%, 1)" stroke="none" transform="rotate(45, 0, 400.00000000000006)"></rect><rect width="5" height="5" x="59.03846153846154" y="397.50000000000006" fill="hsla(0, 0%, 0%, 1)" stroke="none" transform="rotate(45, 61.53846153846154, 400.00000000000006)"></rect><rect width="5" height="5" x="120.57692307692308" y="397.50000000000006" fill="hsla(0, 0%, 0%, 1)" stroke="none" transform="rotate(45, 123.07692307692308, 400.00000000000006)"></rect><rect width="5" height="5" x="182.1153846153846" y="397.50000000000006" fill="hsla(0, 0%, 0%, 1)" stroke="none" transform="rotate(45, 184.6153846153846, 400.00000000000006)"></rect><rect width="5" height="5" x="243.65384615384616" y="397.50000000000006" fill="hsla(0, 0%, 0%, 1)" stroke="none" transform="rotate(45, 246.15384615384616, 400.00000000000006)"></rect><rect width="5" height="5" x="305.1923076923077" y="397.50000000000006" fill="hsla(0, 0%, 0%, 1)" stroke="none" transform="rotate(45, 307.6923076923077, 400.00000000000006)"></rect><rect width="5" height="5" x="366.7307692307692" y="397.50000000000006" fill="hsla(0, 0%, 0%, 1)" stroke="none" transform="rotate(45, 369.2307692307692, 400.00000000000006)"></rect><rect width="5" height="5" x="428.2692307692308" y="397.50000000000006" fill="hsla(0, 0%, 0%, 1)" stroke="none" transform="rotate(45, 430.7692307692308, 400.00000000000006)"></rect><rect width="5" height="5" x="489.8076923076923" y="397.50000000000006" fill="hsla(0, 0%, 0%, 1)" stroke="none" transform="rotate(45, 492.3076923076923, 400.00000000000006)"></rect><rect width="5" height="5" x="551.3461538461538" y="397.50000000000006" fill="hsla(0, 0%, 0%, 1)" stroke="none" transform="rotate(45, 553.8461538461538, 400.00000000000006)"></rect><rect width="5" height="5" x="612.8846153846154" y="397.50000000000006" fill="hsla(0, 0%, 0%, 1)" stroke="none" transform="rotate(45, 615.3846153846154, 400.00000000000006)"></rect><rect width="5" height="5" x="674.4230769230769" y="397.50000000000006" fill="hsla(0, 0%, 0%, 1)" stroke="none" transform="rotate(45, 676.9230769230769, 400.00000000000006)"></rect><rect width="5" height="5" x="735.9615384615385" y="397.50000000000006" fill="hsla(0, 0%, 0%, 1)" stroke="none" transform="rotate(45, 738.4615384615385, 400.00000000000006)"></rect><rect width="5" height="5" x="797.5" y="397.50000000000006" fill="hsla(0, 0%, 0%, 1)" stroke="none" transform="rotate(45, 800, 400.00000000000006)"></rect><rect width="5" height="5" x="-2.5" y="441.9444444444445" fill="hsla(0, 0%, 0%, 1)" stroke="none" transform="rotate(45, 0, 444.4444444444445)"></rect><rect width="5" height="5" x="59.03846153846154" y="441.9444444444445" fill="hsla(0, 0%, 0%, 1)" stroke="none" transform="rotate(45, 61.53846153846154, 444.4444444444445)"></rect><rect width="5" height="5" x="120.57692307692308" y="441.9444444444445" fill="hsla(0, 0%, 0%, 1)" stroke="none" transform="rotate(45, 123.07692307692308, 444.4444444444445)"></rect><rect width="5" height="5" x="182.1153846153846" y="441.9444444444445" fill="hsla(0, 0%, 0%, 1)" stroke="none" transform="rotate(45, 184.6153846153846, 444.4444444444445)"></rect><rect width="5" height="5" x="243.65384615384616" y="441.9444444444445" fill="hsla(0, 0%, 0%, 1)" stroke="none" transform="rotate(45, 246.15384615384616, 444.4444444444445)"></rect><rect width="5" height="5" x="305.1923076923077" y="441.9444444444445" fill="hsla(0, 0%, 0%, 1)" stroke="none" transform="rotate(45, 307.6923076923077, 444.4444444444445)"></rect><rect width="5" height="5" x="366.7307692307692" y="441.9444444444445" fill="hsla(0, 0%, 0%, 1)" stroke="none" transform="rotate(45, 369.2307692307692, 444.4444444444445)"></rect><rect width="5" height="5" x="428.2692307692308" y="441.9444444444445" fill="hsla(0, 0%, 0%, 1)" stroke="none" transform="rotate(45, 430.7692307692308, 444.4444444444445)"></rect><rect width="5" height="5" x="489.8076923076923" y="441.9444444444445" fill="hsla(0, 0%, 0%, 1)" stroke="none" transform="rotate(45, 492.3076923076923, 444.4444444444445)"></rect><rect width="5" height="5" x="551.3461538461538" y="441.9444444444445" fill="hsla(0, 0%, 0%, 1)" stroke="none" transform="rotate(45, 553.8461538461538, 444.4444444444445)"></rect><rect width="5" height="5" x="612.8846153846154" y="441.9444444444445" fill="hsla(0, 0%, 0%, 1)" stroke="none" transform="rotate(45, 615.3846153846154, 444.4444444444445)"></rect><rect width="5" height="5" x="674.4230769230769" y="441.9444444444445" fill="hsla(0, 0%, 0%, 1)" stroke="none" transform="rotate(45, 676.9230769230769, 444.4444444444445)"></rect><rect width="5" height="5" x="735.9615384615385" y="441.9444444444445" fill="hsla(0, 0%, 0%, 1)" stroke="none" transform="rotate(45, 738.4615384615385, 444.4444444444445)"></rect><rect width="5" height="5" x="797.5" y="441.9444444444445" fill="hsla(0, 0%, 0%, 1)" stroke="none" transform="rotate(45, 800, 444.4444444444445)"></rect><rect width="5" height="5" x="-2.5" y="486.38888888888897" fill="hsla(0, 0%, 0%, 1)" stroke="none" transform="rotate(45, 0, 488.88888888888897)"></rect><rect width="5" height="5" x="59.03846153846154" y="486.38888888888897" fill="hsla(0, 0%, 0%, 1)" stroke="none" transform="rotate(45, 61.53846153846154, 488.88888888888897)"></rect><rect width="5" height="5" x="120.57692307692308" y="486.38888888888897" fill="hsla(0, 0%, 0%, 1)" stroke="none" transform="rotate(45, 123.07692307692308, 488.88888888888897)"></rect><rect width="5" height="5" x="182.1153846153846" y="486.38888888888897" fill="hsla(0, 0%, 0%, 1)" stroke="none" transform="rotate(45, 184.6153846153846, 488.88888888888897)"></rect><rect width="5" height="5" x="243.65384615384616" y="486.38888888888897" fill="hsla(0, 0%, 0%, 1)" stroke="none" transform="rotate(45, 246.15384615384616, 488.88888888888897)"></rect><rect width="5" height="5" x="305.1923076923077" y="486.38888888888897" fill="hsla(0, 0%, 0%, 1)" stroke="none" transform="rotate(45, 307.6923076923077, 488.88888888888897)"></rect><rect width="5" height="5" x="366.7307692307692" y="486.38888888888897" fill="hsla(0, 0%, 0%, 1)" stroke="none" transform="rotate(45, 369.2307692307692, 488.88888888888897)"></rect><rect width="5" height="5" x="428.2692307692308" y="486.38888888888897" fill="hsla(0, 0%, 0%, 1)" stroke="none" transform="rotate(45, 430.7692307692308, 488.88888888888897)"></rect><rect width="5" height="5" x="489.8076923076923" y="486.38888888888897" fill="hsla(0, 0%, 0%, 1)" stroke="none" transform="rotate(45, 492.3076923076923, 488.88888888888897)"></rect><rect width="5" height="5" x="551.3461538461538" y="486.38888888888897" fill="hsla(0, 0%, 0%, 1)" stroke="none" transform="rotate(45, 553.8461538461538, 488.88888888888897)"></rect><rect width="5" height="5" x="612.8846153846154" y="486.38888888888897" fill="hsla(0, 0%, 0%, 1)" stroke="none" transform="rotate(45, 615.3846153846154, 488.88888888888897)"></rect><rect width="5" height="5" x="674.4230769230769" y="486.38888888888897" fill="hsla(0, 0%, 0%, 1)" stroke="none" transform="rotate(45, 676.9230769230769, 488.88888888888897)"></rect><rect width="5" height="5" x="735.9615384615385" y="486.38888888888897" fill="hsla(0, 0%, 0%, 1)" stroke="none" transform="rotate(45, 738.4615384615385, 488.88888888888897)"></rect><rect width="5" height="5" x="797.5" y="486.38888888888897" fill="hsla(0, 0%, 0%, 1)" stroke="none" transform="rotate(45, 800, 488.88888888888897)"></rect><rect width="5" height="5" x="-2.5" y="530.8333333333334" fill="hsla(0, 0%, 0%, 1)" stroke="none" transform="rotate(45, 0, 533.3333333333334)"></rect><rect width="5" height="5" x="59.03846153846154" y="530.8333333333334" fill="hsla(0, 0%, 0%, 1)" stroke="none" transform="rotate(45, 61.53846153846154, 533.3333333333334)"></rect><rect width="5" height="5" x="120.57692307692308" y="530.8333333333334" fill="hsla(0, 0%, 0%, 1)" stroke="none" transform="rotate(45, 123.07692307692308, 533.3333333333334)"></rect><rect width="5" height="5" x="182.1153846153846" y="530.8333333333334" fill="hsla(0, 0%, 0%, 1)" stroke="none" transform="rotate(45, 184.6153846153846, 533.3333333333334)"></rect><rect width="5" height="5" x="243.65384615384616" y="530.8333333333334" fill="hsla(0, 0%, 0%, 1)" stroke="none" transform="rotate(45, 246.15384615384616, 533.3333333333334)"></rect><rect width="5" height="5" x="305.1923076923077" y="530.8333333333334" fill="hsla(0, 0%, 0%, 1)" stroke="none" transform="rotate(45, 307.6923076923077, 533.3333333333334)"></rect><rect width="5" height="5" x="366.7307692307692" y="530.8333333333334" fill="hsla(0, 0%, 0%, 1)" stroke="none" transform="rotate(45, 369.2307692307692, 533.3333333333334)"></rect><rect width="5" height="5" x="428.2692307692308" y="530.8333333333334" fill="hsla(0, 0%, 0%, 1)" stroke="none" transform="rotate(45, 430.7692307692308, 533.3333333333334)"></rect><rect width="5" height="5" x="489.8076923076923" y="530.8333333333334" fill="hsla(0, 0%, 0%, 1)" stroke="none" transform="rotate(45, 492.3076923076923, 533.3333333333334)"></rect><rect width="5" height="5" x="551.3461538461538" y="530.8333333333334" fill="hsla(0, 0%, 0%, 1)" stroke="none" transform="rotate(45, 553.8461538461538, 533.3333333333334)"></rect><rect width="5" height="5" x="612.8846153846154" y="530.8333333333334" fill="hsla(0, 0%, 0%, 1)" stroke="none" transform="rotate(45, 615.3846153846154, 533.3333333333334)"></rect><rect width="5" height="5" x="674.4230769230769" y="530.8333333333334" fill="hsla(0, 0%, 0%, 1)" stroke="none" transform="rotate(45, 676.9230769230769, 533.3333333333334)"></rect><rect width="5" height="5" x="735.9615384615385" y="530.8333333333334" fill="hsla(0, 0%, 0%, 1)" stroke="none" transform="rotate(45, 738.4615384615385, 533.3333333333334)"></rect><rect width="5" height="5" x="797.5" y="530.8333333333334" fill="hsla(0, 0%, 0%, 1)" stroke="none" transform="rotate(45, 800, 533.3333333333334)"></rect><rect width="5" height="5" x="-2.5" y="575.2777777777778" fill="hsla(0, 0%, 0%, 1)" stroke="none" transform="rotate(45, 0, 577.7777777777778)"></rect><rect width="5" height="5" x="59.03846153846154" y="575.2777777777778" fill="hsla(0, 0%, 0%, 1)" stroke="none" transform="rotate(45, 61.53846153846154, 577.7777777777778)"></rect><rect width="5" height="5" x="120.57692307692308" y="575.2777777777778" fill="hsla(0, 0%, 0%, 1)" stroke="none" transform="rotate(45, 123.07692307692308, 577.7777777777778)"></rect><rect width="5" height="5" x="182.1153846153846" y="575.2777777777778" fill="hsla(0, 0%, 0%, 1)" stroke="none" transform="rotate(45, 184.6153846153846, 577.7777777777778)"></rect><rect width="5" height="5" x="243.65384615384616" y="575.2777777777778" fill="hsla(0, 0%, 0%, 1)" stroke="none" transform="rotate(45, 246.15384615384616, 577.7777777777778)"></rect><rect width="5" height="5" x="305.1923076923077" y="575.2777777777778" fill="hsla(0, 0%, 0%, 1)" stroke="none" transform="rotate(45, 307.6923076923077, 577.7777777777778)"></rect><rect width="5" height="5" x="366.7307692307692" y="575.2777777777778" fill="hsla(0, 0%, 0%, 1)" stroke="none" transform="rotate(45, 369.2307692307692, 577.7777777777778)"></rect><rect width="5" height="5" x="428.2692307692308" y="575.2777777777778" fill="hsla(0, 0%, 0%, 1)" stroke="none" transform="rotate(45, 430.7692307692308, 577.7777777777778)"></rect><rect width="5" height="5" x="489.8076923076923" y="575.2777777777778" fill="hsla(0, 0%, 0%, 1)" stroke="none" transform="rotate(45, 492.3076923076923, 577.7777777777778)"></rect><rect width="5" height="5" x="551.3461538461538" y="575.2777777777778" fill="hsla(0, 0%, 0%, 1)" stroke="none" transform="rotate(45, 553.8461538461538, 577.7777777777778)"></rect><rect width="5" height="5" x="612.8846153846154" y="575.2777777777778" fill="hsla(0, 0%, 0%, 1)" stroke="none" transform="rotate(45, 615.3846153846154, 577.7777777777778)"></rect><rect width="5" height="5" x="674.4230769230769" y="575.2777777777778" fill="hsla(0, 0%, 0%, 1)" stroke="none" transform="rotate(45, 676.9230769230769, 577.7777777777778)"></rect><rect width="5" height="5" x="735.9615384615385" y="575.2777777777778" fill="hsla(0, 0%, 0%, 1)" stroke="none" transform="rotate(45, 738.4615384615385, 577.7777777777778)"></rect><rect width="5" height="5" x="797.5" y="575.2777777777778" fill="hsla(0, 0%, 0%, 1)" stroke="none" transform="rotate(45, 800, 577.7777777777778)"></rect><rect width="5" height="5" x="-2.5" y="619.7222222222223" fill="hsla(0, 0%, 0%, 1)" stroke="none" transform="rotate(45, 0, 622.2222222222223)"></rect><rect width="5" height="5" x="59.03846153846154" y="619.7222222222223" fill="hsla(0, 0%, 0%, 1)" stroke="none" transform="rotate(45, 61.53846153846154, 622.2222222222223)"></rect><rect width="5" height="5" x="120.57692307692308" y="619.7222222222223" fill="hsla(0, 0%, 0%, 1)" stroke="none" transform="rotate(45, 123.07692307692308, 622.2222222222223)"></rect><rect width="5" height="5" x="182.1153846153846" y="619.7222222222223" fill="hsla(0, 0%, 0%, 1)" stroke="none" transform="rotate(45, 184.6153846153846, 622.2222222222223)"></rect><rect width="5" height="5" x="243.65384615384616" y="619.7222222222223" fill="hsla(0, 0%, 0%, 1)" stroke="none" transform="rotate(45, 246.15384615384616, 622.2222222222223)"></rect><rect width="5" height="5" x="305.1923076923077" y="619.7222222222223" fill="hsla(0, 0%, 0%, 1)" stroke="none" transform="rotate(45, 307.6923076923077, 622.2222222222223)"></rect><rect width="5" height="5" x="366.7307692307692" y="619.7222222222223" fill="hsla(0, 0%, 0%, 1)" stroke="none" transform="rotate(45, 369.2307692307692, 622.2222222222223)"></rect><rect width="5" height="5" x="428.2692307692308" y="619.7222222222223" fill="hsla(0, 0%, 0%, 1)" stroke="none" transform="rotate(45, 430.7692307692308, 622.2222222222223)"></rect><rect width="5" height="5" x="489.8076923076923" y="619.7222222222223" fill="hsla(0, 0%, 0%, 1)" stroke="none" transform="rotate(45, 492.3076923076923, 622.2222222222223)"></rect><rect width="5" height="5" x="551.3461538461538" y="619.7222222222223" fill="hsla(0, 0%, 0%, 1)" stroke="none" transform="rotate(45, 553.8461538461538, 622.2222222222223)"></rect><rect width="5" height="5" x="612.8846153846154" y="619.7222222222223" fill="hsla(0, 0%, 0%, 1)" stroke="none" transform="rotate(45, 615.3846153846154, 622.2222222222223)"></rect><rect width="5" height="5" x="674.4230769230769" y="619.7222222222223" fill="hsla(0, 0%, 0%, 1)" stroke="none" transform="rotate(45, 676.9230769230769, 622.2222222222223)"></rect><rect width="5" height="5" x="735.9615384615385" y="619.7222222222223" fill="hsla(0, 0%, 0%, 1)" stroke="none" transform="rotate(45, 738.4615384615385, 622.2222222222223)"></rect><rect width="5" height="5" x="797.5" y="619.7222222222223" fill="hsla(0, 0%, 0%, 1)" stroke="none" transform="rotate(45, 800, 622.2222222222223)"></rect><rect width="5" height="5" x="-2.5" y="664.1666666666667" fill="hsla(0, 0%, 0%, 1)" stroke="none" transform="rotate(45, 0, 666.6666666666667)"></rect><rect width="5" height="5" x="59.03846153846154" y="664.1666666666667" fill="hsla(0, 0%, 0%, 1)" stroke="none" transform="rotate(45, 61.53846153846154, 666.6666666666667)"></rect><rect width="5" height="5" x="120.57692307692308" y="664.1666666666667" fill="hsla(0, 0%, 0%, 1)" stroke="none" transform="rotate(45, 123.07692307692308, 666.6666666666667)"></rect><rect width="5" height="5" x="182.1153846153846" y="664.1666666666667" fill="hsla(0, 0%, 0%, 1)" stroke="none" transform="rotate(45, 184.6153846153846, 666.6666666666667)"></rect><rect width="5" height="5" x="243.65384615384616" y="664.1666666666667" fill="hsla(0, 0%, 0%, 1)" stroke="none" transform="rotate(45, 246.15384615384616, 666.6666666666667)"></rect><rect width="5" height="5" x="305.1923076923077" y="664.1666666666667" fill="hsla(0, 0%, 0%, 1)" stroke="none" transform="rotate(45, 307.6923076923077, 666.6666666666667)"></rect><rect width="5" height="5" x="366.7307692307692" y="664.1666666666667" fill="hsla(0, 0%, 0%, 1)" stroke="none" transform="rotate(45, 369.2307692307692, 666.6666666666667)"></rect><rect width="5" height="5" x="428.2692307692308" y="664.1666666666667" fill="hsla(0, 0%, 0%, 1)" stroke="none" transform="rotate(45, 430.7692307692308, 666.6666666666667)"></rect><rect width="5" height="5" x="489.8076923076923" y="664.1666666666667" fill="hsla(0, 0%, 0%, 1)" stroke="none" transform="rotate(45, 492.3076923076923, 666.6666666666667)"></rect><rect width="5" height="5" x="551.3461538461538" y="664.1666666666667" fill="hsla(0, 0%, 0%, 1)" stroke="none" transform="rotate(45, 553.8461538461538, 666.6666666666667)"></rect><rect width="5" height="5" x="612.8846153846154" y="664.1666666666667" fill="hsla(0, 0%, 0%, 1)" stroke="none" transform="rotate(45, 615.3846153846154, 666.6666666666667)"></rect><rect width="5" height="5" x="674.4230769230769" y="664.1666666666667" fill="hsla(0, 0%, 0%, 1)" stroke="none" transform="rotate(45, 676.9230769230769, 666.6666666666667)"></rect><rect width="5" height="5" x="735.9615384615385" y="664.1666666666667" fill="hsla(0, 0%, 0%, 1)" stroke="none" transform="rotate(45, 738.4615384615385, 666.6666666666667)"></rect><rect width="5" height="5" x="797.5" y="664.1666666666667" fill="hsla(0, 0%, 0%, 1)" stroke="none" transform="rotate(45, 800, 666.6666666666667)"></rect><rect width="5" height="5" x="-2.5" y="708.6111111111112" fill="hsla(0, 0%, 0%, 1)" stroke="none" transform="rotate(45, 0, 711.1111111111112)"></rect><rect width="5" height="5" x="59.03846153846154" y="708.6111111111112" fill="hsla(0, 0%, 0%, 1)" stroke="none" transform="rotate(45, 61.53846153846154, 711.1111111111112)"></rect><rect width="5" height="5" x="120.57692307692308" y="708.6111111111112" fill="hsla(0, 0%, 0%, 1)" stroke="none" transform="rotate(45, 123.07692307692308, 711.1111111111112)"></rect><rect width="5" height="5" x="182.1153846153846" y="708.6111111111112" fill="hsla(0, 0%, 0%, 1)" stroke="none" transform="rotate(45, 184.6153846153846, 711.1111111111112)"></rect><rect width="5" height="5" x="243.65384615384616" y="708.6111111111112" fill="hsla(0, 0%, 0%, 1)" stroke="none" transform="rotate(45, 246.15384615384616, 711.1111111111112)"></rect><rect width="5" height="5" x="305.1923076923077" y="708.6111111111112" fill="hsla(0, 0%, 0%, 1)" stroke="none" transform="rotate(45, 307.6923076923077, 711.1111111111112)"></rect><rect width="5" height="5" x="366.7307692307692" y="708.6111111111112" fill="hsla(0, 0%, 0%, 1)" stroke="none" transform="rotate(45, 369.2307692307692, 711.1111111111112)"></rect><rect width="5" height="5" x="428.2692307692308" y="708.6111111111112" fill="hsla(0, 0%, 0%, 1)" stroke="none" transform="rotate(45, 430.7692307692308, 711.1111111111112)"></rect><rect width="5" height="5" x="489.8076923076923" y="708.6111111111112" fill="hsla(0, 0%, 0%, 1)" stroke="none" transform="rotate(45, 492.3076923076923, 711.1111111111112)"></rect><rect width="5" height="5" x="551.3461538461538" y="708.6111111111112" fill="hsla(0, 0%, 0%, 1)" stroke="none" transform="rotate(45, 553.8461538461538, 711.1111111111112)"></rect><rect width="5" height="5" x="612.8846153846154" y="708.6111111111112" fill="hsla(0, 0%, 0%, 1)" stroke="none" transform="rotate(45, 615.3846153846154, 711.1111111111112)"></rect><rect width="5" height="5" x="674.4230769230769" y="708.6111111111112" fill="hsla(0, 0%, 0%, 1)" stroke="none" transform="rotate(45, 676.9230769230769, 711.1111111111112)"></rect><rect width="5" height="5" x="735.9615384615385" y="708.6111111111112" fill="hsla(0, 0%, 0%, 1)" stroke="none" transform="rotate(45, 738.4615384615385, 711.1111111111112)"></rect><rect width="5" height="5" x="797.5" y="708.6111111111112" fill="hsla(0, 0%, 0%, 1)" stroke="none" transform="rotate(45, 800, 711.1111111111112)"></rect><rect width="5" height="5" x="-2.5" y="753.0555555555557" fill="hsla(0, 0%, 0%, 1)" stroke="none" transform="rotate(45, 0, 755.5555555555557)"></rect><rect width="5" height="5" x="59.03846153846154" y="753.0555555555557" fill="hsla(0, 0%, 0%, 1)" stroke="none" transform="rotate(45, 61.53846153846154, 755.5555555555557)"></rect><rect width="5" height="5" x="120.57692307692308" y="753.0555555555557" fill="hsla(0, 0%, 0%, 1)" stroke="none" transform="rotate(45, 123.07692307692308, 755.5555555555557)"></rect><rect width="5" height="5" x="182.1153846153846" y="753.0555555555557" fill="hsla(0, 0%, 0%, 1)" stroke="none" transform="rotate(45, 184.6153846153846, 755.5555555555557)"></rect><rect width="5" height="5" x="243.65384615384616" y="753.0555555555557" fill="hsla(0, 0%, 0%, 1)" stroke="none" transform="rotate(45, 246.15384615384616, 755.5555555555557)"></rect><rect width="5" height="5" x="305.1923076923077" y="753.0555555555557" fill="hsla(0, 0%, 0%, 1)" stroke="none" transform="rotate(45, 307.6923076923077, 755.5555555555557)"></rect><rect width="5" height="5" x="366.7307692307692" y="753.0555555555557" fill="hsla(0, 0%, 0%, 1)" stroke="none" transform="rotate(45, 369.2307692307692, 755.5555555555557)"></rect><rect width="5" height="5" x="428.2692307692308" y="753.0555555555557" fill="hsla(0, 0%, 0%, 1)" stroke="none" transform="rotate(45, 430.7692307692308, 755.5555555555557)"></rect><rect width="5" height="5" x="489.8076923076923" y="753.0555555555557" fill="hsla(0, 0%, 0%, 1)" stroke="none" transform="rotate(45, 492.3076923076923, 755.5555555555557)"></rect><rect width="5" height="5" x="551.3461538461538" y="753.0555555555557" fill="hsla(0, 0%, 0%, 1)" stroke="none" transform="rotate(45, 553.8461538461538, 755.5555555555557)"></rect><rect width="5" height="5" x="612.8846153846154" y="753.0555555555557" fill="hsla(0, 0%, 0%, 1)" stroke="none" transform="rotate(45, 615.3846153846154, 755.5555555555557)"></rect><rect width="5" height="5" x="674.4230769230769" y="753.0555555555557" fill="hsla(0, 0%, 0%, 1)" stroke="none" transform="rotate(45, 676.9230769230769, 755.5555555555557)"></rect><rect width="5" height="5" x="735.9615384615385" y="753.0555555555557" fill="hsla(0, 0%, 0%, 1)" stroke="none" transform="rotate(45, 738.4615384615385, 755.5555555555557)"></rect><rect width="5" height="5" x="797.5" y="753.0555555555557" fill="hsla(0, 0%, 0%, 1)" stroke="none" transform="rotate(45, 800, 755.5555555555557)"></rect><rect width="5" height="5" x="-2.5" y="797.5000000000001" fill="hsla(0, 0%, 0%, 1)" stroke="none" transform="rotate(45, 0, 800.0000000000001)"></rect><rect width="5" height="5" x="59.03846153846154" y="797.5000000000001" fill="hsla(0, 0%, 0%, 1)" stroke="none" transform="rotate(45, 61.53846153846154, 800.0000000000001)"></rect><rect width="5" height="5" x="120.57692307692308" y="797.5000000000001" fill="hsla(0, 0%, 0%, 1)" stroke="none" transform="rotate(45, 123.07692307692308, 800.0000000000001)"></rect><rect width="5" height="5" x="182.1153846153846" y="797.5000000000001" fill="hsla(0, 0%, 0%, 1)" stroke="none" transform="rotate(45, 184.6153846153846, 800.0000000000001)"></rect><rect width="5" height="5" x="243.65384615384616" y="797.5000000000001" fill="hsla(0, 0%, 0%, 1)" stroke="none" transform="rotate(45, 246.15384615384616, 800.0000000000001)"></rect><rect width="5" height="5" x="305.1923076923077" y="797.5000000000001" fill="hsla(0, 0%, 0%, 1)" stroke="none" transform="rotate(45, 307.6923076923077, 800.0000000000001)"></rect><rect width="5" height="5" x="366.7307692307692" y="797.5000000000001" fill="hsla(0, 0%, 0%, 1)" stroke="none" transform="rotate(45, 369.2307692307692, 800.0000000000001)"></rect><rect width="5" height="5" x="428.2692307692308" y="797.5000000000001" fill="hsla(0, 0%, 0%, 1)" stroke="none" transform="rotate(45, 430.7692307692308, 800.0000000000001)"></rect><rect width="5" height="5" x="489.8076923076923" y="797.5000000000001" fill="hsla(0, 0%, 0%, 1)" stroke="none" transform="rotate(45, 492.3076923076923, 800.0000000000001)"></rect><rect width="5" height="5" x="551.3461538461538" y="797.5000000000001" fill="hsla(0, 0%, 0%, 1)" stroke="none" transform="rotate(45, 553.8461538461538, 800.0000000000001)"></rect><rect width="5" height="5" x="612.8846153846154" y="797.5000000000001" fill="hsla(0, 0%, 0%, 1)" stroke="none" transform="rotate(45, 615.3846153846154, 800.0000000000001)"></rect><rect width="5" height="5" x="674.4230769230769" y="797.5000000000001" fill="hsla(0, 0%, 0%, 1)" stroke="none" transform="rotate(45, 676.9230769230769, 800.0000000000001)"></rect><rect width="5" height="5" x="735.9615384615385" y="797.5000000000001" fill="hsla(0, 0%, 0%, 1)" stroke="none" transform="rotate(45, 738.4615384615385, 800.0000000000001)"></rect><rect width="5" height="5" x="797.5" y="797.5000000000001" fill="hsla(0, 0%, 0%, 1)" stroke="none" transform="rotate(45, 800, 800.0000000000001)"></rect></g></svg>